<?xml version="1.0" standalone="no"?>
<!DOCTYPE svg PUBLIC "-//W3C//DTD SVG 1.1//EN" "http://www.w3.org/Graphics/SVG/1.1/DTD/svg11.dtd" >
<!--
2013-9-30: Created.
-->
<svg>
<metadata>
Created by iconfont
</metadata>
<defs>

<font id="iconfont" horiz-adv-x="1024" >
  <font-face
    font-family="iconfont"
    font-weight="500"
    font-stretch="normal"
    units-per-em="1024"
    ascent="896"
    descent="-128"
  />
    <missing-glyph />
    
    <glyph glyph-name="llcouponlistnopic" unicode="&#13488;" d="M931.106822-20.215022 92.525811-20.215022c-15.436574 0-27.952632 12.511965-27.952632 27.951609L64.573179 147.501794l0 71.136154c39.644929 6.670933 69.88158 41.065278 69.88158 82.603323 0 41.546232-30.236652 75.93239-69.88158 82.6023l0 71.136154L64.573179 594.743908c0 15.432481 12.516058 27.952632 27.952632 27.952632l838.58101 0c15.440667 0 27.951609-12.520151 27.951609-27.952632l0-139.764184 0-71.136154c-39.645952-6.66991-69.88158-41.056068-69.88158-82.6023 0-41.538045 30.235628-75.93239 69.88158-82.603323l0-71.136154 0-139.765207C959.059454-7.703057 946.547489-20.215022 931.106822-20.215022zM232.289995 436.345318l-18.634406 0 0-279.525298 18.634406 0L232.289995 436.345318zM634.592594 324.533766c14.529925 0 26.306132 12.520151 26.306132 27.953655 0 15.440667-11.776208 27.951609-26.306132 27.951609l-25.842575 0 48.552809 93.812619c6.998391 11.156084 2.812045 25.39539-9.344832 31.810496-12.165064 6.424316-27.697829 2.584871-34.704406-8.571213l-60.590983-117.051903-81.70179 0-60.582797 117.051903c-7.001461 11.156084-22.533202 14.995529-34.69929 8.571213-12.166087-6.415107-16.35141-20.655436-9.343809-31.810496l48.552809-93.812619-25.845645 0c-14.531971 0-26.306132-12.511965-26.306132-27.951609 0-15.433504 11.774161-27.953655 26.306132-27.953655l95.864348 0 0-74.540693-95.864348 0c-14.531971 0-26.306132-12.520151-26.306132-27.951609 0-15.441691 11.774161-27.952632 26.306132-27.952632l95.864348 0 0-74.566276c0-16.308431 12.051477-29.528524 26.910906-29.528524s26.915 13.221116 26.915 29.528524l0 74.566276 95.861278 0c14.529925 0 26.306132 12.511965 26.306132 27.952632 0 15.431457-11.776208 27.951609-26.306132 27.951609l-95.861278 0 0 74.540693L634.592594 324.533766zM819.296293 436.345318l-18.634406 0 0-279.525298 18.634406 0L819.296293 436.345318z"  horiz-adv-x="1024" />

    
    <glyph glyph-name="iconfontcolor35" unicode="&#59027;" d="M512 812C229.232 812 0 582.768 0 300s229.232-512 512-512 512 229.232 512 512S794.768 812 512 812zM832.448 252 511.568 252c-9.648 0-18.16 4.464-23.952 11.376-4.672 5.488-7.6 12.464-7.6 20.176L480.016 283.84C480.016 283.904 480 283.952 480 284s0.016 0.096 0.016 0.16L480 604.464C480.016 621.904 494.336 636 512.016 636c17.664 0 32.016-14.112 32.016-31.536L544.016 316l288.416 0c17.456 0 31.6-14.304 31.568-32C864 266.32 849.888 252 832.448 252z"  horiz-adv-x="1024" />

    
    <glyph glyph-name="iconzhuanqu53" unicode="&#58985;" d="M663.983432 752.224771l-303.963074 0c-53.414895 0-96.87031-43.455415-96.87031-96.87031l0-542.710186c0-53.414895 43.455415-96.87031 96.87031-96.87031l303.963074 0c53.413632 0 96.867784 43.455415 96.867784 96.87031l0 542.710186C760.851215 708.769356 717.397064 752.224771 663.983432 752.224771zM313.672462 617.351814l396.655076 0 0-414.626348-396.655076 0L313.672462 617.351814zM360.019094 701.701094l303.963074 0c21.214892 0 39.134377-14.336093 44.611144-33.825602l-393.189152 0C320.883454 687.365 338.804202 701.701094 360.019094 701.701094zM663.983432 66.297643l-303.963074 0c-25.554876 0-46.346632 20.790493-46.346632 46.346632l0 39.557513 396.655076 0 0-39.557513C710.327538 87.0894 689.537045 66.297643 663.983432 66.297643zM512.000632 113.410972m-23.965906 0a18.974 18.974 0 1 0 47.931813 0 18.974 18.974 0 1 0-47.931813 0Z"  horiz-adv-x="1024" />

    
    <glyph glyph-name="shouquanzhengpin" unicode="&#59032;" d="M919.6 769.9 543.6 890.3c-20.5 6.5-42.8 6.5-63.3 0L104.4 769.9c-31.9-10.2-53.3-39.4-53.3-72.7l0-264.2c0-152.6 74.2-297.8 198.5-388.2l216.8-157.5c13.4-9.7 29.2-14.9 45.7-14.9 16.6 0 32.4 5.1 45.7 14.8l216.8 157.7c124.3 90.5 198.5 235.6 198.5 388.2L973.1 697.3C972.9 730.5 951.5 759.7 919.6 769.9zM120.4 721.5 496.2 841.9c5.1 1.7 10.5 2.5 16 2.5 5.4 0 10.7-0.8 15.8-2.5l375.9-120.4c10.7-3.4 18-13.2 18-24.3l0-13.6-819.4 0 0 13.6C102.4 708.5 109.7 718.2 120.4 721.5zM921.8 433.1l-0.2 0c0-136.7-66.4-266.4-177.6-347.3L527.3-71.8c-9-6.5-21.7-6.6-30.7 0L279.9 85.9c-111.2 80.8-177.6 210.7-177.6 347.2L102.3 632.4l819.4 0L921.8 433.1 921.8 433.1zM808 559.4 441.1 222.5 287 420.9c-8.6 11.1-24.6 13.1-35.6 4.5-11.1-8.6-13.1-24.5-4.5-35.6l171-220.2c4.4-5.6 10.9-9.1 17.9-9.7 0.7-0.1 1.4-0.1 2.1-0.1 6.3 0 12.5 2.4 17.2 6.7L842.3 522c10.3 9.5 11 25.5 1.5 35.9C834.3 568.2 818.3 568.8 808 559.4z"  horiz-adv-x="1024" />

    
    <glyph glyph-name="kefu" unicode="&#58938;" d="M804.278 529.689c-32.087 134.201-149.477 237.566-292.388 237.566-146.854 0-267.617-100.472-292.387-237.565-37.155-7.103-54.823-26.341-54.823-54.824v-127.919c0-31.945 23.806-54.823 54.823-54.823 17.489 0 44.543 5.337 54.823 18.274 24.842-66.958 110.145-149.298 129.080-151.602 9.44-1.142 14.972-1.66 8.637 6.14-9.369 11.51-68.296 68.992-79.861 149.601-5.104 35.479 20.987 70.313 51.325 76.060 48.755 9.245 97.224 19.792 145.979 28.875 30.981 5.747 52.147 23.075 65.103 51.932 3.034 6.746 6.674 20.344 8.674 40.011 1.785 9.78 11.101 3.159 11.492 2.641 0 0 69.563-23.736 79.879-148.836 6.282-75.879-62.248-177.281-69.956-189.113 0.483 0.732 0.090-10.243 6.568-6.638 57.625 32.355 101.83 86.409 122.264 151.423 8.262-12.528 21.218-21.557 36.246-24.699-24.11-111.842-121.96-181.833-243.204-192.47-7.263 18.382-25.145 31.427-46.15 31.427-27.447 0-49.683-22.165-49.683-49.442 0-27.305 22.235-49.434 49.683-49.434 22.111 0 40.635 14.491 47.078 34.408 140.322 11.599 252.823 96.662 276.308 228.775 20.755 8.834 35.318 23.27 35.318 47.488v127.92c-0.001 47.007-54.611 53.966-54.825 54.823zM731.182 493.141c-36.603 101.079-107.719 164.468-219.292 164.468-111.109 0-200.623-64.049-237.565-164.468-1.838 2.284-16.168 16.276-18.274 18.274 20.914 122.37 131.275 201.016 255.839 201.016 123.959 0 215.972-79.504 237.566-201.016-7.69-10.529-18.273-18.274-18.273-18.274z"  horiz-adv-x="1024" />

    
    <glyph glyph-name="paizhao" unicode="&#58939;" d="M606.64559 607.928049c-131.437541 0-238.367923-106.314351-238.367923-236.994646s106.930381-236.994646 238.367923-236.994646 238.367923 106.314351 238.367923 236.994646S738.083132 607.928049 606.64559 607.928049zM606.64559 171.858392c-110.403482 0-200.229301 89.308025-200.229301 199.075011 0 109.772103 89.825818 199.075011 200.229301 199.075011s200.229301-89.303932 200.229301-199.075011C806.874891 261.166417 717.049073 171.858392 606.64559 171.858392zM319.188646 598.609823l-143.979182 0c-21.063735 0-38.565341-16.97665-38.565341-37.918611l0-67.424622c0-20.941961 17.502629-37.918611 38.565341-37.918611l143.979182 0c21.063735 0 38.489616 16.97665 38.489616 37.918611L357.678262 560.690188C357.678262 581.632149 340.252381 598.609823 319.188646 598.609823zM319.815933 492.185978l-143.262868 0 0 67.224054 143.262868 0.023536L319.815933 492.185978zM902.166187 664.101419l-86.548168 0c-17.951861 0-34.088376 11.283997-40.178071 28.646434l-7.718799 21.439288c-11.220552 32.013111-41.826618 53.268204-76.165704 53.268204L521.634428 767.455345c-34.395368 0-65.001433-21.036106-76.193333-52.956096l-7.718799-21.966291c-6.005784-17.131169-22.1423-28.431539-40.150442-28.431539L120.31932 664.101419c-32.095999 0-57.353243-25.428136-57.353243-56.177464l0-492.953202c0-31.429827 25.806759-57.68991 57.353243-57.68991l781.845845 0c30.996968 0 57.216119 25.713638 57.216119 57.68991L959.381283 607.923956C959.382307 639.191076 933.684018 664.101419 902.166187 664.101419zM919.473365 114.970754c0-11.062963-7.344269-18.804275-17.307178-18.804275L120.31932 96.166479c-10.503215 0-20.514219 8.296967-20.514219 18.804275L99.8051 607.923956c0 9.841136 9.452279 16.268522 20.514219 16.268522l277.251511 0c34.218336 0 64.824401 22.662139 76.193333 55.082526l7.718799 23.255657c5.828752 16.626679 21.965268 28.085662 40.150442 28.085662l169.921018 0c18.128893 0 34.265408-11.964496 40.178071-28.826536l7.718799-22.453385c11.396561-32.512485 42.002626-55.143924 76.165704-55.143924l86.548168 0c10.642384 0 17.307178-5.761214 17.307178-16.268522L919.472342 114.970754zM700.94121 387.808746l-76.179007 0 0 76.803223c0 10.470469-8.400321 18.959817-18.931165 18.959817s-18.931165-8.489348-18.931165-18.959817l0-76.803223-76.652797 0c-10.530844 0-19.069311-7.949043-19.069311-18.419512s8.538467-18.419512 19.069311-18.419512l76.652797 0 0-66.473971c0-10.470469 8.400321-18.959817 18.931165-18.959817s18.931165 8.489348 18.931165 18.959817l0 66.473971 76.179007 0c10.530844 0 19.069311 7.949043 19.069311 18.419512S711.472054 387.808746 700.94121 387.808746z"  horiz-adv-x="1024" />

    
    <glyph glyph-name="you" unicode="&#58889;" d="M251.683531 818.898009 706.794642 346.930929 707.374339 410.703025 252.263228-44.408086C234.490036-62.18128 234.490036-90.997321 252.263228-108.770516 270.036423-126.54371 298.852466-126.54371 316.625661-108.770516L771.736772 346.340595C789.281917 363.885741 789.539767 392.251494 772.316469 410.112692L317.205358 882.079769C299.758196 900.173123 270.946916 900.696965 252.853564 883.249803 234.76021 865.80264 234.236368 836.991361 251.683531 818.898009L251.683531 818.898009Z"  horiz-adv-x="1024" />

    
    <glyph glyph-name="jifenshangcheng" unicode="&#58916;" d="M640.866996 175.226093c20.444635 0 37.010939 16.57756 37.010939 37.010939s-16.565281 37.010939-37.010939 37.010939L383.841132 249.24797c-20.444635 0-37.010939-16.57756-37.010939-37.010939s16.565281-37.010939 37.010939-37.010939L640.866996 175.226093zM958.011076 491.888196c-1.180895 10.759041-4.217045 21.673625-9.011234 32.420387L871.808786 699.419809c-18.288528 40.986483-59.106166 67.467601-103.983259 67.467601l-513.484817 0c-44.817742 0-85.59854-26.420743-103.911628-67.311035L75.853595 530.994865c-9.276271-20.73423-12.31242-42.793642-8.758478-63.780629 13.637602-80.382748 77.008908-132.331911 161.475671-132.331911 39.769772 0 79.598896 13.493316 115.211998 39.010479 13.697977 9.782807 31.239492 10.409071 44.600801 1.445932 40.251749-26.842345 81.490989-40.456411 122.549104-40.456411 41.143049 0 83.743286 14.505365 123.212206 41.902342 12.409634 8.674567 29.252231 8.650007 42.841737 0.024559 37.769208-24.047696 78.141708-34.96228 98.815563-39.323611 7.017834-1.477654 14.045901-2.152013 21.070898-2.292206l0-260.740466L227.835032 74.452945 227.835032 243.535875c0 20.433378-16.565281 37.010939-37.010939 37.010939s-37.010939-16.57756-37.010939-37.010939L153.813155 62.114942c0-34.022884 27.67327-61.683874 61.683874-61.683874l593.711 0c34.010605 0 61.683874 27.66099 61.683874 61.683874L870.891903 346.957339c23.283286 8.317433 42.504046 20.815071 57.178257 37.730323C960.396403 421.914518 960.709535 467.865059 958.011076 491.888196zM812.350602 409.745361c-4.087085-0.360204-8.100492-0.63138-11.876492-0.744967-2.806929 0-6.095835 0.240477-9.361205 0.915859-12.722766 2.674922-45.419446 10.915607-74.394361 29.348422-38.805818 24.6494-87.803765 24.047696-124.81368-1.686409-18.830881-13.083993-48.167023-28.674063-80.972173-28.674063-26.179242 0-53.599755 9.42158-81.46643 28.02324-18.60166 12.409634-40.22719 18.577101-61.948911 18.577101-23.420409 0-46.938032-7.18054-66.852594-21.445428-23.288402-16.698311-47.540759-25.155936-72.093968-25.155936-69.057819 0-84.888366 49.444109-88.490404 70.696132-1.084705 6.408967 0.096191 13.902638 3.337002 21.131273l74.575486 168.593789c6.39771 14.300704 20.673855 23.541159 36.347836 23.541159l513.484817 0c15.709797 0 29.986965-9.265014 36.383652-23.601534l77.190033-175.11225c1.674129-3.758604 2.698458-7.253194 3.048429-10.457166 1.349741-12.023848 1.542122-34.576493-12.276604-50.504254-7.343245-8.458649-17.901719-13.956873-29.396517-17.628496C826.179562 410.883277 812.350602 409.745361 812.350602 409.745361z"  horiz-adv-x="1024" />

    
    <glyph glyph-name="icon_add" unicode="&#58922;" d="M416 480h-351.936c-35.616 0-64.064-28.64-64.064-63.936v-64.128c0-35.2 28.672-63.936 64.064-63.936h351.936v-351.936c0-35.616 28.64-64.064 63.936-64.064h64.128c35.2 0 63.936 28.672 63.936 64.064v351.936h351.936c35.616 0 64.064 28.64 64.064 63.936v64.128c0 35.2-28.672 63.936-64.064 63.936h-351.936v351.936c0 35.616-28.64 64.064-63.936 64.064h-64.128c-35.2 0-63.936-28.672-63.936-64.064v-351.936z"  horiz-adv-x="1024" />

    
    <glyph glyph-name="icon_cut" unicode="&#58923;" d="M0 416.064c0 35.296 28.448 63.936 64.064 63.936h895.872c35.392 0 64.064-28.736 64.064-63.936v-64.128c0-35.328-28.448-63.936-64.064-63.936h-895.872c-35.392 0-64.064 28.736-64.064 63.936v64.128z"  horiz-adv-x="1024" />

    
    <glyph glyph-name="iconfont-success" unicode="&#58883;" d="M510.731-35.391c-231.803 0-419.71 187.918-419.71 419.72 0 231.794 187.909 419.711 419.71 419.711 231.803 0 419.712-187.917 419.712-419.711 0-231.801-187.91-419.72-419.712-419.72zM767.18 531.903l-13.489 13.489c-7.452 7.452-19.524 7.452-26.977 0l-279.776-273.972-102.709 107.489c-3.373 3.372-12.148 0.056-19.601-7.396l-13.489-13.491c-7.452-7.452-10.748-16.227-7.377-19.59l137.048-143.409c3.353-3.373 12.128-0.046 19.582 7.396l13.47 13.49c2.384 2.365 4.135 4.816 5.588 7.229l287.731 281.778c7.453 7.444 7.453 19.536-0.001 26.988z"  horiz-adv-x="1024" />

    
    <glyph glyph-name="gengduo" unicode="&#59088;" d="M186.181818 290.909091c51.2 0 93.090909 41.890909 93.090909 93.090909s-41.890909 93.090909-93.090909 93.090909-93.090909-41.890909-93.090909-93.090909 41.890909-93.090909 93.090909-93.090909z m325.818182 0c51.2 0 93.090909 41.890909 93.090909 93.090909s-41.890909 93.090909-93.090909 93.090909-93.090909-41.890909-93.090909-93.090909 41.890909-93.090909 93.090909-93.090909z m325.818182 0c51.2 0 93.090909 41.890909 93.090909 93.090909s-41.890909 93.090909-93.090909 93.090909-93.090909-41.890909-93.090909-93.090909 41.890909-93.090909 93.090909-93.090909z"  horiz-adv-x="1024" />

    
    <glyph glyph-name="xia" unicode="&#58911;" d="M512.213333 148.864c9.877333 0 18.709333 4.586667 24.405334 11.712l435.584 427.392c5.610667 5.504 9.130667 13.162667 9.130666 21.504 0 16.917333-13.952 30.464-31.04 30.464a31.36 31.36 0 0 1-21.994666-8.96L511.957333 222.570667 95.701333 631.04a31.36 31.36 0 0 1-21.973333 8.96C56.533333 640 42.666667 626.389333 42.666667 609.536c0-8.32 3.52-16 9.130666-21.504l439.573334-431.36v0.149333c5.461333-4.970667 12.8-7.957333 20.821333-7.957333"  horiz-adv-x="1024" />

    
    <glyph glyph-name="yonghu" unicode="&#58952;" d="M780.357 321.862c-41.036 41.036-89.712 71.588-142.787 90.229 57.347 40.26 95.02 106.929 95.02 182.271 0 122.722-99.809 222.661-222.661 222.661-122.722 0-222.661-99.809-222.661-222.661 0-75.343 37.541-142.011 95.02-182.271-53.076-18.771-101.75-49.322-142.787-90.229-72.236-72.236-111.978-168.29-111.978-270.429 0-23.69 0-41.943 0.13-61.749 0.13-17.088 13.981-30.94 31.069-30.94h0.13c17.218 0.13 30.94 14.111 30.94 31.199-0.13 19.677-0.13 37.801-0.13 61.361 0 176.575 143.694 320.398 320.398 320.398s320.398-143.694 320.398-320.398c0-23.559 0-41.684-0.13-61.361-0.13-17.218 13.723-31.199 30.94-31.199h0.13c17.088 0 30.94 13.852 31.069 30.94 0.13 19.807 0.13 38.06 0.13 61.749-0.258 102.14-40.001 198.194-112.236 270.429zM349.406 594.363c0 88.546 71.977 160.524 160.524 160.524s160.524-71.977 160.524-160.524-71.977-160.524-160.524-160.524-160.524 72.106-160.524 160.524z"  horiz-adv-x="1024" />

    
    <glyph glyph-name="wb" unicode="&#58887;" d="M407.859 321.653c-15.395-1.61-26.392-14.995-26.392-27.765 0-12.799 12.41-21.669 27.719-19.871 15.221 1.762 27.718 13.596 27.718 26.312 0.001 12.889-11.479 23.038-29.045 21.324zM446.197 417.816c-81.6-3.708-147.581-47.4-147.581-101.98 0-54.469 65.981-95.343 147.581-91.562 81.6 3.712 147.736 54.854 147.736 109.274 0 54.434-66.137 88.054-147.736 84.268zM501.715 280.731c-24.915-32.244-74.336-48.024-122.438-22.020-22.807 12.378-22.025 36.741-22.025 36.741s-9.447 76.924 72.618 86.526c82.234 9.568 96.915-68.957 71.845-101.247zM446.742 332.235c-5.315-3.871-6.321-11.090-3.516-15.667 2.735-4.604 9.062-5.187 14.296-1.318 5.073 4.021 7.102 11.019 4.368 15.659-2.73 4.528-9.057 5.815-15.148 1.326zM499.997 844.607c-246.834 0-446.896-200.066-446.896-446.896 0-246.875 200.062-446.905 446.896-446.905 246.841 0 446.902 200.030 446.902 446.905 0 246.83-200.061 446.896-446.902 446.896zM666.875 297.439c-33.661-71.478-144.543-106.237-226.844-99.796-78.096 6.125-178.508 32.026-188.978 126.664 0 0-5.464 42.746 35.999 98.185 0 0 59.737 83.487 129.389 107.219 69.662 23.703 77.7-16.399 77.7-40.094-3.666-20.107-10.7-31.855 15.457-23.779 0 0 68.494 31.741 96.597 3.599 22.807-22.766 3.753-54.037 3.753-54.037s-9.453-10.398 9.992-14.168c19.371-3.833 80.59-32.179 46.935-103.793zM599.405 494.929c-7.419 0-13.429 6.001-13.429 13.395 0 7.494 6.010 13.547 13.429 13.547 0 0 83.869 15.493 73.871-74.615 0-0.584-0.081-0.98-0.155-1.402-1.091-6.4-6.556-11.323-13.118-11.323-7.579 0-13.589 6.012-13.589 13.396 0-0.002 13.278 60.324-47.009 47.002zM741.212 432.108h-0.075c-2.264-32.577-9.837-21.163-18.898-21.163-10.773 0-19.365 5.382-19.365 16.248 0 9.331 3.821 17.207 3.821 17.207 1.092 3.908 10.309 27.576-6.004 64.157-29.839 50.082-89.96 50.405-97.069 47.513-7.027-2.763-17.727-4.416-17.727-4.416-10.774 0-19.519 8.669-19.519 19.366 0 9.066 5.93 16.482 14.21 18.828 0 0 0.23 0.024 0.545 0.115 0.546 0.109 1.173 0.233 1.873 0.307 8.281 1.563 38.109 13.002 67.162 6.216 51.92-12.070 123.070-67.034 91.046-164.378z"  horiz-adv-x="1000" />

    
    <glyph glyph-name="weixin" unicode="&#58881;" d="M359.9872 521.884672c17.087488 0 28.555264 11.61728 28.555264 28.92288 0 17.38752-11.467776 28.850176-28.555264 28.850176-17.08032 0-34.322432-11.462656-34.322432-28.850176 0-17.3056 17.242112-28.92288 34.322432-28.92288z m159.624192 57.77408c-17.088512 0-34.249728-11.462656-34.249728-28.849152 0-17.307648 17.16224-28.923904 34.249728-28.923904 17.226752 0 28.621824 11.61728 28.621824 28.923904 0 17.385472-11.395072 28.850176-28.621824 28.850176z m199.632896-213.864448c17.161216 0 28.6208 11.4688 28.6208 23.08096 0 11.54048-11.459584 23.15776-28.6208 23.15776-11.240448 0-22.562816-11.61728-22.562816-23.156736 0-11.613184 11.322368-23.08096 22.562816-23.08096z m-125.447168 0c17.3056 0 28.547072 11.4688 28.547072 23.08096 0 11.54048-11.240448 23.15776-28.547072 23.15776-11.3152 0-22.781952-11.61728-22.781952-23.156736 0-11.613184 11.466752-23.08096 22.781952-23.08096zM78.596096 400.715776c0-248.33536 201.286656-449.611776 449.62816-449.611776 248.342528 0 449.62816 201.27744 449.62816 449.611776S776.567808 850.32448 528.22528 850.32448c-248.341504 0-449.62816-201.273344-449.62816-449.608704z m563.682304 116.298752c-108.35968 0-193.938432-81.978368-193.938432-182.91712 0-16.861184 2.62656-33.047552 7.048192-48.48128-7.048192-0.600064-14.094336-0.899072-21.281792-0.899072-28.48256 0-51.40992 5.842944-79.885312 11.613184l-79.73888-40.54016 22.780928 69.53984c-57.104384 40.464384-91.271168 92.546048-91.271168 156.01664 0 110.0032 102.739968 196.626432 228.114432 196.626432 112.180224 0 210.42688-69.23776 230.127616-162.30912-7.187456 0.823296-14.534656 1.350656-21.95456 1.350656z m208.180224-180.216832c0-52.08064-34.095104-98.24256-79.885312-133.00736l17.161216-57.851904-62.570496 34.69312c-22.862848-5.769216-45.710336-11.539456-68.424704-11.539456-108.506112 0-194.085888 75.1616-194.085888 167.706624 0 92.468224 85.579776 167.776256 194.085888 167.776256 102.439936 0 193.719296-75.309056 193.719296-167.77728z"  horiz-adv-x="1024" />

    
    <glyph glyph-name="shoucang" unicode="&#58898;" d="M985.043 489.646c-7.719 23.636-30.391 41.486-67.415 53.306-0.481 0.121-0.966 0.361-1.445 0.361l-200.557 49.444c-43.537 60.299-86.953 120.478-130.489 180.658-0.121 0.241-0.603 0.843-0.724 0.966-20.986 26.653-47.035 41.245-73.444 41.245-19.054 0-47.154-7.476-72.358-43.415l-111.677-164.737c-50.047-13.748-99.977-27.616-150.023-41.486l-73.084-20.14c-34.131-10.009-55.596-26.29-63.918-48.359-8.805-23.155-2.655-50.171 18.933-82.49 0.481-0.724 1.086-1.569 1.69-2.291 43.777-50.291 87.434-100.579 131.213-150.991-2.171-72.601-4.581-145.324-6.875-218.043-3.376-34.854 2.171-59.337 16.882-75.013 11.094-11.821 26.653-17.849 46.068-17.849 14.954 0 32.563 3.497 56.441 11.456l193.078 71.396c72.842-24.723 145.804-49.326 219.613-74.169 14.471-4.221 27.737-6.39 39.679-6.39 27.133 0 73.324 11.337 76.943 87.434v2.291c-4.1 64.762-8.080 129.523-12.18 194.164v0.843l142.187 173.663c21.828 28.823 29.066 55.115 21.468 78.149zM927.76 438.028l-147.13-179.694c-3.376-4.221-5.186-9.526-4.823-14.833l0.603-9.167c3.98-64.278 8.080-128.56 12.060-192.96-2.531-44.743-21.587-44.743-31.961-44.743-7.476 0-16.523 1.445-25.687 4.221-75.497 25.449-150.991 50.894-226.486 76.581-5.066 1.69-10.492 1.569-15.436-0.241l-200.077-73.927c-17.967-5.908-31.477-8.805-41.124-8.805-9.406 0-11.821 2.655-12.783 3.619-2.531 2.775-8.323 12.421-5.306 42.33 0 0.481 0.121 0.966 0.121 1.445 2.41 75.737 4.823 151.351 7.116 226.967 0.121 5.306-1.69 10.492-5.306 14.59l-135.675 156.297c-12.421 19.054-17.247 33.889-13.748 42.933 4.1 10.734 21.227 17.728 34.492 21.587l72.722 20.14c52.701 14.59 105.405 29.066 158.105 43.658 5.186 1.445 9.77 4.581 12.662 9.045l116.017 171.132c7.719 10.975 20.018 24.118 34.854 24.118 12.060 0 25.449-8.562 37.386-23.757 45.106-62.471 90.209-124.821 135.191-187.29 3.135-4.34 7.719-7.356 12.905-8.683l207.913-51.257c21.347-6.875 34.854-15.678 37.868-24.964 2.895-8.683-2.41-22.551-14.471-38.351zM405.323 355.297c18.091 0 32.803 14.713 32.803 32.803v65.605c0 18.091-14.713 32.803-32.803 32.803s-32.803-14.713-32.803-32.803v-65.605c0-18.091 14.713-32.803 32.803-32.803M511.934 224.085c-87.312 0-163.653 38.954-205.020 97.083v-65.605c41.364-58.007 117.707-97.083 205.020-97.083s163.653 38.954 205.020 97.083v65.605c-41.245-58.129-117.585-97.083-205.020-97.083M618.544 355.297c18.091 0 32.803 14.713 32.803 32.803v65.605c0 18.091-14.713 32.803-32.803 32.803s-32.803-14.713-32.803-32.803v-65.605c0-18.091 14.713-32.803 32.803-32.803M618.544 355.297z"  horiz-adv-x="1024" />

    
    <glyph glyph-name="bangzhuzhongxin" unicode="&#58899;" d="M513.071262-87.146338c-261.015631 0-472.615385 211.595815-472.615385 472.615384 0 261.015631 211.599754 472.615385 472.615385 472.615385 261.019569 0 472.615385-211.599754 472.615384-472.615385 0-261.019569-211.595815-472.615385-472.615384-472.615384z m-47.261539 189.046153h94.521108v94.519139h-94.521108v-94.519139z m232.253046 419.9424c-10.204554 90.299077-72.000985 140.177723-184.989538 147.196062-133.598523 4.669046-162.623015-58.5728-189.048123-169.8816l88.532677-19.164554c18.323692 74.818954 28.571569 96.823138 100.515446 94.523077 61.648738-4.718277 81.189415-10.249846 87.297969-60.8 4.058585-34.335508-7.894646-71.650462-80.978708-114.0736-68.056615-40.329846-53.5808-71.865108-51.392984-124.768492v-31.192616h84.745846v25.519262c-2.193723 39.703631-6.880492 57.2416 53.612308 89.068308 95.761723 50.932185 95.761723 107.567262 91.705107 163.574153z"  horiz-adv-x="1024" />

    
    <glyph glyph-name="bianji" unicode="&#58900;" d="M872.997724 746.038353C776.571621 842.743478 648.363232 896 511.991229 896c-136.368493 0-264.580393-53.256522-361.004741-149.961647C54.556877 649.334983 1.449518 520.759827 1.449518 384.001755s53.107358-265.331473 149.53697-362.040108c96.426102-96.701615 224.636247-149.961647 361.004741-149.961647 136.373758 0 264.582148 53.260031 361.00825 149.961647 96.429612 96.705125 149.53697 225.278526 149.53697 362.040108 0 136.759827-53.109113 265.333228-149.538725 362.036598zM511.991229-118.818567c-276.464312 0-501.386601 225.566323-501.386601 502.820322 0 277.253999 224.922289 502.818567 501.386601 502.818567 276.466066 0 501.388356-225.564568 501.388355-502.818567S788.457295-118.818567 511.991229-118.818567zM739.924859 395.655787V596.334671c0 36.657291-29.904586 66.412715-66.78299 66.412715h-400.985738v-438.413414c0-36.618684 29.895812-66.27759 66.772461-66.27759h166.032663l3.929134 3.969495 227.198344 229.753422 3.836126 3.876488z m-26.731797 14.744342l-220.077118-225.783926h-154.185597c-22.125287 0-40.044173 17.776742-40.044174 39.712504V636.1823h374.250431c22.111249 0 40.054702-17.855711 40.054703-39.847629v-185.934542zM652.699493 465.792316H347.069392c-7.379191 0-13.365021-5.512018-13.365021-12.31035s5.985831-12.31035 13.365021-12.31035h305.630101c7.380945 0 13.358002 5.512018 13.358002 12.31035s-5.977057 12.31035-13.358002 12.31035zM652.699493 551.957746H347.069392c-7.379191 0-13.365021-5.512018-13.365021-12.308595s5.985831-12.31035 13.365021-12.31035h305.630101c7.380945 0 13.358002 5.512018 13.358002 12.31035 0 6.798332-5.977057 12.308595-13.358002 12.308595zM776.827831 259.090749l38.175246 38.459534-71.800137 72.217794-37.610181-39.44752-0.061421 0.063175-9.318311-9.313047-144.905893-144.904138-2.816551-2.820061-0.782668-3.909831-13.175497-65.866952-3.872978-19.375421 19.377175 3.871224 65.861688 13.177251 3.91334 0.780913 2.818307 2.820062 137.265227 137.265227 0.036852-0.042117 10.567773 10.648497 6.349087 6.349087-0.021058 0.026323z m-32.838714 73.525166l34.167144-33.187931-19.970318-20.094913-33.505561 32.312255 19.308735 20.970589z m-137.767117-205.534585l-42.732621-9.291989 10.636213 43.931191 131.247809 131.114439 34.286474-33.838985-133.437875-131.914656z"  horiz-adv-x="1024" />

    
    <glyph glyph-name="zhifubao" unicode="&#58982;" d="M991.075024 204.575512a511.654633 511.654633 0 1 1-66.770929-123.308767c-75.213231 35.30417-237.151922 112.052365-279.36343 136.100132a24.047768 24.047768 0 0 0-15.861294 4.093237C549.517076 126.292353 434.906438 51.079122 255.827317 90.732356c-27.885178-3.83741-183.172359 146.333225-15.861294 265.0371 19.954531 7.930647 91.586179 67.282584 346.134359-31.722588 19.954531 39.653234 43.746471 86.981288 43.746471 122.541285 4.093237 7.930647 4.093237 7.930647 4.093237 11.768057L281.410048 460.402828v25.582732h179.079122l-2.558273 76.748195H255.827317v25.582731h204.661853V690.647413h102.330926v-102.330927h204.661854v-25.582731h-204.661854v-76.748195h179.079122a700.455193 700.455193 0 0 0-72.910785-185.474805A3286.357709 3286.357709 0 0 1 991.075024 204.575512zM235.105304 316.372049C159.636246 281.323706 179.079122 173.876234 239.198541 158.01494c23.79194-11.768057 174.985885-59.351937 298.550478 99.005171a117.680566 117.680566 0 0 1 12.023884 15.861294c-79.818123 39.397407-191.61466 82.888051-314.667599 43.490644z"  horiz-adv-x="1024" />

    
    <glyph glyph-name="QQ" unicode="&#59018;" d="M512 895.6C229.4 895.6 0.4 666.6 0.4 384s229-511.6 511.6-511.6 511.6 229 511.6 511.6S794.6 895.6 512 895.6z m264.4-664.3c-11.5-6.4-30.7 7.7-48.5 34.5-6.4-28.1-24.3-53.7-48.6-74.1 25.6-8.9 42.2-25.6 42.2-42.2 0-29.4-46-52.4-102.2-52.4-51.1 0-93.3 19.2-100.9 43.4h-12.8c-7.7-24.3-49.8-43.4-100.9-43.4-56.2 0-102.2 23-102.2 52.4 0 17.9 16.6 33.2 42.2 42.2-24.3 20.4-42.2 46-48.5 74.1-17.9-25.5-37.1-39.6-48.6-34.5-17.9 8.9-14.1 57.5 7.7 107.3 16.6 39.6 39.6 69 57.5 75.4v7.7c0 15.3 3.8 29.4 11.5 40.9v2.6c0 7.7 1.3 14.1 5.1 19.2 6.4 104.8 74.1 186.5 184 186.5S691 589.1 696.1 485.6c2.6-5.1 5.1-12.8 5.1-19.2v-2.6c7.7-11.5 11.5-25.6 11.5-40.9v-7.7c17.9-6.4 40.9-35.8 57.5-75.4 20.3-51 24.1-99.5 6.2-108.5z"  horiz-adv-x="1024" />

    
    <glyph glyph-name="shang" unicode="&#58901;" d="M511.52 566.016l402.272-402.272a18.016 18.016 0 1 1 25.504 25.408l-415.04 415.04a17.952 17.952 0 0 1-25.44 0L84.736 190.176a18.048 18.048 0 0 1 25.44-25.504l401.344 401.344z"  horiz-adv-x="1024" />

    
    <glyph glyph-name="santiaogang" unicode="&#58907;" d="M0 390.865c0 0.723 0.723 2.168 0.723 2.89 3.613 18.79 13.007 33.243 29.628 42.637 7.227 4.336 15.176 5.782 23.125 6.504H961.13c20.234 0 35.41-8.672 46.973-24.57 8.671-12.285 12.285-25.293 10.84-40.469-2.891-23.124-18.79-43.359-42.637-49.14-6.504-1.445-13.008-2.168-20.234-2.168H58.535c-23.848 0-39.746 11.563-51.308 31.074-3.614 5.781-5.059 12.285-6.504 18.79 0 0.722-0.723 2.167-0.723 2.89v11.562zM0 690.766c0 0.723 0.723 2.168 0.723 2.891 3.613 18.789 13.007 33.242 29.628 42.637 7.227 4.335 15.176 5.78 23.125 6.503H961.13c20.234 0 35.41-8.671 46.973-24.57 8.671-12.285 12.285-25.293 10.84-40.468-2.891-23.125-18.79-43.36-42.637-49.14-6.504-1.446-13.008-2.169-20.234-2.169H58.535c-23.848 0-39.746 11.563-51.308 31.074-3.614 5.782-5.059 12.285-6.504 18.79 0 1.445-0.723 2.89-0.723 3.613v10.84zM51.308 33.152c-1.445 0-2.168 0.722-3.613 0.722-16.62 3.614-28.183 13.008-36.855 27.461-6.504 10.84-9.395 22.402-8.672 34.688 2.168 24.57 19.512 46.25 44.804 52.03 5.06 1.446 10.84 1.446 16.622 1.446h899.703c19.512 0 34.687-8.672 46.25-23.848 7.226-10.117 11.562-22.402 11.562-34.687 0-14.453-5.058-27.46-14.453-38.3-9.394-10.84-21.68-17.344-36.132-18.79-0.723 0-1.446 0-2.168-0.722H51.308zM1024 706.665c-0.723 2.168-0.723 5.058-1.445 7.226l1.445-7.226z"  horiz-adv-x="1024" />

    
    <glyph glyph-name="xiazai" unicode="&#58903;" d="M913.97 800.83c-5.044 0-11.184-1.414-18.284-4.43L105.32 460.555c-28.454-12.118-30.242-35.421-4.003-51.785L324.68 269.436c26.238-16.363 60.965-51.464 77.142-77.969l133.862-219.52c7.689-12.599 16.977-18.817 25.892-18.817 9.876 0 19.299 7.581 25.706 22.582l337.98 790.738c9.128 21.435 3.95 34.38-11.292 34.38zM352.28 316.708L171.25 429.645l607.32 258.024-390.828-398.02c-11.96 10.618-24.124 19.991-35.464 27.06z m204.625-274.72L448.906 219.042c-6.384 10.47-14.682 21.645-24.088 32.725L817.49 651.64l-260.585-609.65z"  horiz-adv-x="1024" />

    
    <glyph glyph-name="uEA-ste-service-" unicode="&#58905;" d="M1161.946146 592.5191159999999L922.179481 877.55641C912.119341 889.29324 898.705821 896 883.615612 896H290.067364c-15.09021 0-28.503729-6.70676-38.563869-18.44359L11.73683 592.5191159999999c-15.09021-18.44359-15.09021-46.947319 0-65.390908l536.540789-637.142187c18.44359-21.79697 50.300699-23.47366 70.420978-6.70676 1.67669 1.67669 5.03007 3.35338 6.70676 6.70676l536.540789 637.142187c15.09021 20.12028 15.09021 46.947319 0 65.390908zM883.615612 845.699301l211.262935-251.503495H829.961533L640.495567 845.699301h243.120045zM588.518178-9.412581000000046L394.022142 543.895107h400.728901L588.518178-9.412581000000046z m6.70676 833.314912L767.924004 594.195806H424.202561L595.224938 823.902331zM290.067364 845.699301h258.210255L360.488343 594.195806H78.804428L290.067364 845.699301zM63.714219 543.895107h276.653844L536.540789-17.79603099999997 63.714219 543.895107z m576.781348-556.661068L848.405122 543.895107h259.886945L640.495567-12.765960999999947z"  horiz-adv-x="1174" />

    
    <glyph glyph-name="quanyiqia" unicode="&#59008;" d="M263.90016 690.59072h492.94336c64.6912 0 117.13536-52.44416 117.13536-117.13536v-378.12224c0-64.6912-52.44416-117.13536-117.13536-117.13536H263.90016c-64.6912 0-117.13536 52.44416-117.13536 117.13536V573.45536c0 64.6912 52.43904 117.13536 117.13536 117.13536z m4.31616-46.2848c-40.16128 0-72.82688-32.3584-73.20576-72.5248l-3.51744-373.34016v-0.6912c0-40.43264 32.77312-73.21088 73.20576-73.21088h490.24c40.43264 0 73.216 32.77824 73.216 73.216V571.0848c0 40.43264-32.78336 73.216-73.216 73.216H268.21632zM190.39744 559.6928h639.9488v-43.63264H190.39744zM408.56064 443.3408v-43.63776h-218.1632V443.3408h218.1632z m218.1632 0h203.6224v-43.63776h-203.6224V443.3408zM394.22464 443.3408h43.7504a81.3568 81.3568 0 0 1-0.32768-7.2704c0-44.1856 35.8144-80 79.99488-80s79.99488 35.8144 79.99488 79.99488c0 2.4576-0.11264 4.87936-0.32768 7.2704h43.7504c0.13824-2.4064 0.20992-4.83328 0.20992-7.2704 0-68.2752-55.3472-123.62752-123.62752-123.62752s-123.62752 55.3472-123.62752 123.62752c0 2.44224 0.07168 4.864 0.20992 7.2704z"  horiz-adv-x="1024" />

    
    <glyph glyph-name="____-" unicode="&#58902;" d="M766.392507 4.219056l-64.261864-64.261864-444.100771 444.100771 64.261864 64.261864 444.100771-444.100771ZM701.633283 828.042808l64.261865-64.261864-444.100771-444.100771-64.261864 64.261864 444.10077 444.100771Z"  horiz-adv-x="1024" />

    
    <glyph glyph-name="mima" unicode="&#58904;" d="M877.0197667 749.01392021c-111.4299501 111.4128624-292.09046309 111.4128624-403.52041318 0-87.8506374-87.85153653-106.41944795-218.71731006-55.7460044-324.76800761L63.43137969 69.95452294999996l6.61321581-127.91577305 127.88249591-6.61321582 51.42173642 51.42623292c-0.07105166 0.07015254-67.21772607 67.27348828-44.83909951 89.6826955 22.39211777 22.37772832 89.51271065-44.67091289 89.67999726-44.83819951L339.03062334 76.54165635000004c-0.25003037 0.24913125-67.21592783 67.28518037-44.83730039 89.64851836 22.38942041 22.42089844 89.65391484-44.82740742 89.65391484-44.82740742l-3.74775907-3.74865821 48.5805621 48.58505948c-0.39033545 0.39123457-67.18894629 67.30406807-44.83280303 89.65931133 22.42089844 22.42179844 89.65301484-44.82650742 89.65301484-44.82650742L457.19340928 194.71343613l95.0529542 95.05745069c106.05969141-50.66265058 236.9281623-32.09294092 324.77340322 55.75409912C988.41733877 456.94054658 988.41733877 637.58486924 877.0197667 749.01392021zM742.49077695 480.02249678c-37.13132461-37.14841318-97.36258799-37.14841318-134.46333369 0-37.16370263 37.13312373-37.16370263 97.34729854 0 134.49571171 37.1007457 37.13222461 97.33200908 37.13222461 134.46333369 0C779.65717871 577.36979531 779.65717871 517.1556205100001 742.49077695 480.02249678z"  horiz-adv-x="1024" />

    
    <glyph glyph-name="shouhuodizhi" unicode="&#59014;" d="M522.24 659.017143c-89.234286 0-162.377143-73.142857-162.377143-162.377143s73.142857-162.377143 162.377143-162.377143 162.377143 73.142857 162.377143 162.377143-73.142857 162.377143-162.377143 162.377143z m0-282.331429c-65.828571 0-118.491429 52.662857-118.491429 118.491429s52.662857 118.491429 118.491429 118.491428 118.491429-52.662857 118.491429-118.491428-52.662857-118.491429-118.491429-118.491429zM522.24 825.782857C337.92 825.782857 188.708571 676.571429 188.708571 492.251429c0-36.571429 7.314286-73.142857 21.942858-119.954286 7.314286-21.942857 27.794286-62.902857 61.44-125.805714 76.068571-140.434286 226.742857-305.737143 234.057142-313.051429 4.388571-4.388571 10.24-7.314286 16.091429-7.314286 5.851429 0 11.702857 2.925714 16.091429 7.314286 7.314286 8.777143 181.394286 209.188571 248.685714 342.308571 8.777143 16.091429 38.034286 77.531429 45.348571 95.085715 14.628571 38.034286 21.942857 78.994286 21.942857 119.954285 1.462857 184.32-147.748571 334.994286-332.068571 334.994286z m270.628571-438.857143c-5.851429-14.628571-33.645714-71.68-43.885714-90.697143-54.125714-105.325714-181.394286-260.388571-226.742857-314.514285-42.422857 46.811429-152.137143 175.542857-212.114286 285.257143-32.182857 59.977143-52.662857 99.474286-58.514285 118.491428-13.165714 40.96-20.48 73.142857-20.48 105.325714 0 159.451429 130.194286 289.645714 289.645714 289.645715s289.645714-130.194286 289.645714-289.645715c1.462857-35.108571-4.388571-70.217143-17.554286-103.862857z"  horiz-adv-x="1024" />

    
    <glyph glyph-name="video-control" unicode="&#58635;" d="M511.996157 894.720288C229.933078 894.720288 1.275869 666.063079 1.275869 384c0-282.063079 228.657209-510.720288 510.720288-510.720288 282.070765 0 510.720288 228.657209 510.720288 510.720288C1022.720288 666.066922 794.066922 894.720288 511.996157 894.720288z m249.459251-520.727404c-25.905517-15.156706-329.381671-192.31032-344.565278-201.079997-18.953569-10.960174-38.122345 2.982151-38.122345 21.716671V597.60042c0 20.640636 21.186339 30.663124 37.34222 21.582167 22.070224-12.370547 326.691586-190.423418 345.345403-201.533469 16.732328-9.968686 17.005179-33.70292 0-43.656234z"  horiz-adv-x="1024" />

    
    <glyph glyph-name="liulan" unicode="&#58908;" d="M511.78796 538.14303c-84.394667 0-153.06602-68.671354-153.066021-153.081535 0-84.393374 68.671354-153.064727 153.066021-153.064727 84.393374 0 153.06602 68.670061 153.06602 153.064727 0 84.410182-68.672646 153.081535-153.06602 153.081535z m0-248.074343c-52.384323 0-94.995394 42.611071-94.995394 94.994101 0 52.384323 42.611071 95.010909 94.995394 95.010909s95.000566-42.626586 95.000565-95.010909c0-52.38303-42.616242-95.000566-95.000565-95.000566v0.006465z m0 0M969.130667 396.940929c-68.606707 153.196606-256.672323 260.186505-457.344 260.186505S123.050667 550.132364 54.449131 396.940929l-5.317818-11.863919 5.317818-11.869091c58.550303-130.747475 234.440404-263.100768 457.338829-263.100767 222.898424 0 398.792404 132.353293 457.344 263.105939l5.312646 11.863919-5.312646 11.869091v-0.005172zM511.78796 168.172606c-191.297939 0-342.565495 107.217455-398.651475 216.888889 55.545535 108.237576 206.611394 214.000485 398.651475 214.000485s343.105939-105.762909 398.651474-214.000485c-56.08598-109.671434-207.348364-216.888889-398.651474-216.888889z m0 0"  horiz-adv-x="1024" />

    
    <glyph glyph-name="xiaolian-" unicode="&#58625;" d="M371.044 547.679c22.973 0 36.607-48.99 39.31-71.347 1.418-11.993 11.604-20.823 23.41-20.823 0.908 0 1.842 0.046 2.774 0.153 12.949 1.522 22.216 13.246 20.705 26.194-4.911 41.978-28.602 113.041-86.198 113.041-57.995 0-80.175-71.394-84.13-113.585-1.229-12.973 8.309-24.494 21.295-25.71 12.973-1.216 24.481 8.311 25.711 21.297 2.087 22.181 14.331 70.78 37.123 70.78zM514.912 140.19100000000003c155.052 0 167.931 112.325 168.06 113.478 1.266 12.857-8.052 24.202-20.896 25.632a23.73 23.73 0 0 1-26.062-20.706c-0.364-2.9-10.154-71.171-121.103-71.171-110.483 0-120.646 67.676-121.083 71.123-1.405 12.859-12.949 22.24-25.793 20.931-12.973-1.285-22.453-12.831-21.177-25.816 0.106-1.121 12.985-113.471 168.054-113.471zM730.795 476.356c1.416-12.006 11.604-20.847 23.407-20.847 0.918 0 1.841 0.046 2.773 0.165 12.96 1.522 22.227 13.246 20.709 26.194-4.914 41.978-28.604 113.043-86.213 113.043-57.986 0-80.165-71.396-84.128-113.584-1.216-12.975 8.309-24.495 21.295-25.71 13.146-1.159 24.49 8.311 25.72 21.294 2.091 22.181 14.322 70.782 37.125 70.782 22.973-0.001 36.607-48.979 39.312-71.337zM208.768 188.889c-46.429 62.225-73.947 139.261-73.947 222.602 0 206.074 168.123 373.724 374.789 373.724 206.667 0 374.789-167.649 374.789-373.724 0-83.341-27.517-160.377-73.946-222.602 17.528-0.875 34.091-5.242 49.048-12.489 45.511 67.169 72.104 148.086 72.104 235.091 0 232.103-189.31 420.942-422.006 420.942-232.693 0-421.995-188.829-421.995-420.931 0-87.002 26.596-167.925 72.104-235.094 14.967 7.238 31.528 11.619 49.06 12.481zM804.074 188.92399999999998c-64.936 0-118.656-48.679-126.517-111.374 0.022 0.014 0.048 0.021 0.07 0.035-0.651-5.22-1.1-10.51-1.1-15.915 0 5.379 0.377 10.673 1.029 15.88-50.557-25.396-107.585-39.785-167.96-39.785-60.365 0-117.391 14.389-167.947 39.785 0.654-5.207 1.029-10.501 1.029-15.88 0 5.396-0.448 10.683-1.099 15.915 0.022-0.014 0.046-0.021 0.069-0.035-7.863 62.695-61.582 111.374-126.509 111.374-70.32 0-127.539-57.086-127.539-127.254 0-70.17 57.218-127.255 127.539-127.255 58.323 0 107.6 39.288 122.728 92.72-0.016 0.005-0.03 0.014-0.042 0.019a130.023 130.023 0 0 1 4.454 24.921 126.446 126.446 0 0 0-4.411-24.939c52.509-23.434 110.595-36.575 171.741-36.575 61.144 0 119.224 13.137 171.733 36.571a126.067 126.067 0 0 0-4.416 24.975c0.669-8.579 2.206-16.92 4.465-24.952-0.017-0.009-0.035-0.014-0.049-0.022 15.126-53.433 64.404-92.716 122.731-92.716 70.32 0 127.539 57.085 127.539 127.255 0.001 70.166-57.217 127.252-127.538 127.252z m-588.933-207.29c-44.292 0-80.32 35.92-80.32 80.044 0 44.13 36.028 80.041 80.32 80.041 44.292 0 80.319-35.924 80.319-80.049 0-44.126-36.04-80.036-80.319-80.036z m588.933 0c-44.289 0-80.329 35.92-80.329 80.044 0 44.13 36.04 80.041 80.329 80.041 44.295 0 80.324-35.924 80.324-80.049 0-44.126-36.029-80.036-80.324-80.036z"  horiz-adv-x="1024" />

    
    <glyph glyph-name="icon_share" unicode="&#58634;" d="M976 512a48 48 0 0 0-48 48 47.104 47.104 0 0 0 3.2 16H928V732.48l-524.8-524.8a48.64 48.64 0 0 0-68.8 68.8L858.016 800H704v3.2a44.8 44.8 0 0 0-16-3.2 48 48 0 0 0 0 96 44.8 44.8 0 0 0 16-3.2V896h192a128 128 0 0 0 128-128v-192h-3.2a47.104 47.104 0 0 0 3.2-16 48 48 0 0 0-48-48z m-672 288a44.8 44.8 0 0 0-16 3.2V800H160a64 64 0 0 1-64-64v-704a64 64 0 0 1 64-64h704a64 64 0 0 1 64 64v128h3.2a47.104 47.104 0 0 0-3.2 16 48 48 0 0 0 96 0 47.104 47.104 0 0 0-3.2-16h3.2v-160a128 128 0 0 0-128-128H128a128 128 0 0 0-128 128V768a128 128 0 0 0 128 128h160v-3.2a44.8 44.8 0 0 0 16 3.2 48 48 0 0 0 0-96z"  horiz-adv-x="1024" />

    
    <glyph glyph-name="right" unicode="&#58629;" d="M399.399 383.754l292.155 292.16c12.27799999 12.27 12.278 32.186-1e-8 44.457-12.27 12.27799999-32.186 12.278-44.45699999 0l-314.38699999-314.389c-12.28099999-12.27-12.281-32.186-1e-8-44.457l314.388-314.38800001c6.137-6.14 14.183-9.211 22.228-9.21099999s16.092 3.071 22.228 9.211c12.28099999 12.27 12.281 32.186 0 44.457l-292.157 292.161z"  horiz-adv-x="1024" />

    
    <glyph glyph-name="shanchu" unicode="&#58888;" d="M748.53803298 706.84058443H275.32388293c-43.49648592 0-78.846011-36.17802957-78.84601099-80.77918814v-26.92639606h630.90617205v26.92639606c0 44.73924267-35.34952507 80.77918815-78.84601101 80.77918814m-137.80791413 53.8527921l11.59906291-84.92171061H401.53273415l11.59906292 84.92171061h197.59832178m6.35186778 53.8527921H406.77992928c-21.67920092 0-41.83947694-17.9509307-44.87732675-40.04438388l-15.32733313-112.67661115c-3.0378498-21.95536909 12.28948332-40.04438386 33.96868423-40.04438387h262.91209274c21.67920092 0 37.00653407 17.9509307 33.96868423 40.04438387l-15.32733313 112.67661115c-3.1759339 22.09345317-23.33620992 40.04438386-45.01541084 40.04438388m144.57403417-269.12587642H262.20589511c-28.85957319 0-50.40069004-24.1647144-47.77709248-53.57662392l43.08223367-484.95129706c2.62359757-29.54999362 28.44532095-53.57662394 57.30489417-53.57662393h394.23005498c28.85957319 0 54.68129659 24.1647144 57.30489416 53.57662393L809.43311328 491.70558419c2.62359757 29.54999362-18.91751926 53.71470801-47.77709248 53.71470802M406.77992928 60.88324740999997h-78.846011l-26.23597562 376.8314606h105.08198662V60.88324740999997z m157.69202198 0h-105.08198662V437.71470801H564.47195126V60.88324740999997z m131.45604637 0h-78.846011V437.71470801h105.08198664l-26.23597564-376.8314606z m0 0"  horiz-adv-x="1024" />

    
    <glyph glyph-name="after-sale" unicode="&#58890;" d="M505.6-122.70000000000005l-11.9 5.6c-0.8 0.4-1.6 0.8-2.4 1.1-0.4 0.2-0.9 0.4-1.3 0.6-123 54.5-224 134.5-300.5 237.7-61 82.4-106.3 179.6-134.7 288.8-48.1 185-31.2 339.3-30.5 345.7l3 26.1 26.2-0.9c11.5-0.4 23.2-0.6 34.6-0.6 218.9 0 358.1 74.7 395.6 97.6 2.8 1.7 5.1 3.1 6.6 4.1L505.8 893l15.4-10c1.6-1.1 3.8-2.4 6.1-3.8l0.4-0.3c37.4-22.9 176.4-97.6 395.5-97.6 11.4 0 23.1 0.2 34.6 0.6l26.2 0.9 3-26.1c0.7-6.5 17.7-160.7-30.5-345.7-28.4-109.2-73.7-206.4-134.7-288.8-76.4-103.3-177.5-183.3-300.5-237.8-0.4-0.2-0.9-0.4-1.3-0.6-0.8-0.4-1.7-0.8-2.5-1.2l-11.9-5.3z m-434 854.6c-2.5-50.3-3.4-175.8 31.4-308.3 60.1-229 200.3-399 402.7-491.1 202.9 92.4 343.4 263 403.2 492.9 34.4 132.1 33.5 256.4 30.9 306.5h-9.2c-99.3 0-201.3 7-288.9 35-64.8 20.7-110.8 51.7-135.9 66.4-25.2-14.7-71.2-38.4-135.9-59.1-87.6-28-189.7-42.3-289-42.3h-9.3z m157.6-306.5c49 73.2 87.1 162 114.2 266.4l40.6-12.1c-15-48.3-31.3-93.6-48.9-135.7v-387.8h-39.5V461c-15.8-28.9-32.2-55.8-49.4-80.7-5.1 15.5-10.8 30.5-17 45.1zM422 667.7h306.5v-207.1h-41.7v20.9h-92.3v-74.1h181.3V370H626.3c33.7-56 84.9-100.1 153.8-132.4-11.4-15.8-20.5-29.3-27.5-40.7C683.8 238.60000000000002 631 295 594.4 366.1v-212.6h-40.1V368.29999999999995c-44.3-79.8-99.8-140.6-166.4-182.4-8.4 10.3-18.7 21.4-30.8 33.5 65.2 35.9 118.1 86 158.7 150.5H372v37.4h182.4v74.1h-90.6v-24.7H422v211z m264.7-36.8h-223v-112.6h223V630.9z"  horiz-adv-x="1024" />

    
    <glyph glyph-name="zhanghuanquan" unicode="&#58913;" d="M914.285714 749.714286c-14.628571 14.628571-29.257143 14.628571-43.885714 14.628571h-7.314286-29.257143c-29.257143 0-80.457143 0-131.657142 14.628572C636.342857 800.914286 563.2 866.742857 541.257143 881.371429 526.628571 888.685714 512 896 504.685714 896c-14.628571 0-29.257143 0-36.571428-7.314286 0 0-80.457143-80.457143-160.914286-102.4-51.2-14.628571-109.714286-21.942857-131.657143-21.942857H146.285714h-7.314285c-14.628571 7.314286-29.257143 0-43.885715-14.628571-14.628571-7.314286-21.942857-29.257143-21.942857-43.885715v-160.914285c0-592.457143 402.285714-665.6 416.914286-672.914286H512c14.628571 0 416.914286 80.457143 416.914286 672.914286V705.828571c7.314286 14.628571 0 36.571429-14.628572 43.885715z m-146.285714-226.742857L490.057143 252.342857l-7.314286-7.314286c-7.314286-7.314286-21.942857-7.314286-29.257143-7.314285-14.628571 0-21.942857 0-29.257143 7.314285l-7.314285 7.314286-146.285715 146.285714c-14.628571 14.628571-14.628571 36.571429 0 58.514286 14.628571 14.628571 43.885714 14.628571 58.514286 0l124.342857-124.342857 256 248.685714c14.628571 14.628571 43.885714 14.628571 58.514286 0 14.628571-21.942857 14.628571-43.885714 0-58.514285z"  horiz-adv-x="1024" />

    
    <glyph glyph-name="icon-" unicode="&#58628;" d="M268.02606186-38.30899283999997a117.44211993 117.44211993 0 0 0-117.28124029 117.2812403L150.74482157 689.0277525399999A117.44211993 117.44211993 0 0 0 268.02606186 806.30899284l488.02831609 0a117.44211993 117.44211993 0 0 0 117.2812403-117.2812403l0-609.97506528a117.44211993 117.44211993 0 0 0-117.2812403-117.28124029z m0 792.97562884a65.79976308 65.79976308 0 0 1-65.71932328-65.71932326l0-609.97506528a65.79976308 65.79976308 0 0 1 65.71932328-65.71932326l488.02831609 0a65.79976308 65.79976308 0 0 1 65.71932328 65.71932326L821.77370123 689.0277525399999a65.79976308 65.79976308 0 0 1-65.71932328 65.71932326zM318.94446042 358.17882159a25.82117841 25.82117841 0 1 0 0 51.56191701l386.11107916 0a25.82117841 25.82117841 0 1 0 0-51.56191701zM318.94446042 236.23207242a25.82117841 25.82117841 0 1 0 0 51.24015779l263.44037172 0a25.82117841 25.82117841 0 1 0 0-51.64235684zM318.94446042 480.52776979a25.82117841 25.82117841 0 1 0 0 51.64235684l386.11107916 0a25.82117841 25.82117841 0 1 0 0-51.64235684z"  horiz-adv-x="1024" />

    
    <glyph glyph-name="gouwuche" unicode="&#58626;" d="M347.13599999 112.63999998999998q19.45600001 0 36.86400002-7.16799999t30.72-19.968 20.48-30.20799999 7.16799999-36.864-7.16799999-36.864-20.48-30.20800001-30.72-20.48-36.864-7.68q-20.48 0-37.37600001 7.68t-30.20799999 20.48-20.48 30.20800001-7.16800001 36.864 7.16800001 36.864 20.48 30.20799999 30.20799999 19.968 37.37600001 7.16800001zM773.12000001 110.59199998999998q19.45600001 0 37.37599999-7.16799999t30.72-19.968 20.48-30.20799999 7.67999999-36.864-7.67999999-36.864-20.48-30.20800001-30.72-20.48-37.37600001-7.68-36.864 7.68-30.20799999 20.48-20.48 30.20800001-7.68 36.864 7.68 36.864 20.48 30.20799999 30.20799999 19.968 36.864 7.16800001zM945.15200001 692.22400001q28.672 0 44.54399999-7.68000001t22.528-18.94400001 6.144-24.06399999-3.58400001-22.016-12.79999999-37.88800001-22.01600001-62.97599999-24.06399999-68.09600001-17.92-53.248q-13.31200001-40.96-33.79200001-56.83199999t-50.17599999-15.872l-34.816 0-66.56000001 0-87.03999999 0-95.23200001 0-253.95199998 0 15.35999999-92.16 516.096 0q49.152 0 49.152-41.98400001 0-20.48-9.728-35.32799999t-38.39999999-14.848l-49.152 0-95.23200001 0-117.76000001 0-119.80799999 0-98.304 0-56.32000001 0q-20.48 0-34.30399999 9.21599999t-23.04000001 24.06400001-14.84799999 32.256-8.704 32.768q-1.02400001 6.144-5.632 29.69600001t-11.264 58.87999999-14.84800001 78.848-16.384 87.55199999q-19.45600001 103.42400001-44.03199999 230.40000001l-76.80000001 0q-15.36000001 0-25.59999999 7.68t-16.896 18.432-9.216 23.04-2.56 22.528q0 20.48 13.824 33.79199999t37.376 13.31200001l22.528 0 20.48 0 25.59999999 0 34.816 0q20.48 0 32.768-6.144t19.45600001-15.36000001 10.24-19.45599999 5.11999999-17.40800001q2.048-8.192 4.096-23.03999999t4.096-30.20800001q3.07200001-18.432 6.144-38.912l700.416 0z"  horiz-adv-x="1024" />

    
    <glyph glyph-name="sousuo" unicode="&#58627;" d="M361.984 184.96000000000004l-192.448-192.448a34.688 34.688 0 0 0-49.056 48.95999999l192.48 192.51200001a345.216 345.216 0 0 0-78.24 219.392C234.72 644.8 389.92 800 581.376 800 772.8 800 928 644.8 928 453.376c0-191.456-155.2-346.656-346.624-346.656-83.232 0-159.616 29.344-219.392 78.24z m-57.92 268.416a277.312 277.312 0 1 1 554.624 0 277.312 277.312 0 0 1-554.624 0z"  horiz-adv-x="1024" />

    
    <glyph glyph-name="taobao" unicode="&#58925;" d="M614.399846 230.400998h102.399847V435.200691h-102.399847z m-255.999616 0h102.399847V435.200691H358.40023z m145.919782-358.399462a460.799309 460.799309 0 0 0-319.99952 127.999808A437.247344 437.247344 0 0 0 102.400614 516.608569a468.479297 468.479297 0 0 0 123.903815 151.039774l6.65599 5.119992A307.199539 307.199539 0 0 1 256.000384 694.272303a186.36772 186.36772 0 0 1 23.039965 35.327947 82.431876 82.431876 0 0 1 5.119993 18.431972 147.455779 147.455779 0 0 1 0 34.815948 188.415717 188.415717 0 0 1-7.679989 24.063964 116.223826 116.223826 0 0 1-15.359977 23.551964 47.103929 47.103929 0 0 0-13.823979 38.911942 30.207955 30.207955 0 0 0 13.823979 22.527966h16.383976a78.335882 78.335882 0 0 0 22.527966-3.583994A243.199635 243.199635 0 0 0 358.40023 867.328043 886.78267 886.78267 0 0 1 499.200019 793.600154l46.59193-13.82398h8.191988a749.054876 749.054876 0 0 0 83.455875-22.527966 500.735249 500.735249 0 0 0 51.199923-15.871976 444.927333 444.927333 0 0 0 208.383687-162.303757 432.127352 432.127352 0 0 0 77.823884-255.999616 449.023326 449.023326 0 0 0-40.44794-175.103737 455.167317 455.167317 0 0 0-102.399846-141.311788A472.063292 472.063292 0 0 0 504.832011-127.998464z"  horiz-adv-x="1024" />

    
    <glyph glyph-name="buxihuan" unicode="&#58630;" d="M512-128c282.528 0 511.586 229.252 511.586 511.995C1023.586 666.748 794.528 896 512 896 229.482 896 0.414 666.748 0.414 384.005 0.414 101.25199999999995 229.482-128 512-128z m0 928.006c229.559 0 415.674-186.258 415.674-416.011 0-229.743-186.115-415.99-415.674-415.99-229.559 0-415.663 186.247-415.663 415.99C96.337 613.748 282.452 800.006 512 800.006zM256.207 576.0029999999999a64.02 64.02 0 0 0 63.948 64 64.01 64.01 0 0 0 63.949-64 64.01 64.01 0 0 0-63.949-64 64.02 64.02 0 0 0-63.948 64z m383.69 0c0 35.31 28.658 64 63.948 64a64.01 64.01 0 0 0 0-128 64.01 64.01 0 0 0-63.949 64zM320.032 115.25l-82.243 49.44C293.747 257.72400000000005 395.604 320.005 512 320.005c116.406 0 218.263-62.28 274.21-155.318l-82.232-49.44C664.759 180.40499999999997 593.434 224.01300000000003 512 224.01300000000003c-81.434 0-152.76-43.608-191.967-108.763z"  horiz-adv-x="1024" />

    
    <glyph glyph-name="yue" unicode="&#58906;" d="M505.892-128c-319.816 0-454.007 114.457-454.007 349.48 0 194.793 152.142 398.116 336.622 462.156h234.897c184.48-64.167 336.622-267.363 336.622-462.155C959.899-13.543 825.836-128 505.892-128z m125.915 386.402c21.134 0.255 38.322 17.442 38.322 38.704s-17.188 38.577-38.322 38.577v0.127H553.89c0.127 0.891-0.127 1.655 0 2.419l91.285 93.322c14.896 16.806 7.384 30.556-7.766 45.834-15.15 15.277-39.85 18.46-52.072 5.22l-78.427-83.647-84.792 84.665c-10.694 10.695-31.574 7.257-46.597-7.766s-18.46-35.903-7.766-46.598l86.702-86.701c-1.656-2.037-2.674-4.456-3.31-6.875H380.74v-0.128h-0.382c-21.389 0-38.577-17.315-38.577-38.576 0-21.262 17.315-38.577 38.577-38.577h0.255v-0.127h77.28v-38.577h-77.28v-0.127h-0.255c-21.389 0-38.577-17.315-38.577-38.704 0-21.262 17.315-38.576 38.577-38.576h77.535v-38.959h0.764c-0.637-2.928-0.891-6.111-0.891-9.421 0-26.737 21.643-48.38 48.38-48.38 26.608 0 48.38 21.643 48.38 48.38 0 3.183-0.383 6.365-0.892 9.421h0.51v38.959h78.044c21.134 0.127 38.322 17.314 38.322 38.576s-17.188 38.577-38.322 38.577v0.127h-78.045v38.577l77.663 0.254zM689.48 838.07l-8.148-10.185c-0.255-0.127-0.255-0.382-0.51-0.637l-68.75-85.81H380.359L311.863 827.12c-0.509 0.51-0.89 1.146-1.4 1.655l-7.384 9.294 1.4 2.674c-0.637 2.419-1.528 4.71-1.528 7.257 0 12.35 7.766 22.662 18.588 26.99l0.891 1.91c0-0.254 94.85 18.843 173.786 19.098 82.628 0.254 173.913-19.352 173.913-19.352l0.891-1.91c10.694-4.202 18.46-14.641 18.46-26.864 0-2.546-0.763-4.838-1.4-7.13l1.4-2.673z m0 0"  horiz-adv-x="1024" />

    
    <glyph glyph-name="chongzhi" unicode="&#58884;" d="M399.2 611.5h209.1c64.6 0 114.1 145.7 114.1 145.7 0 43.7-4.4 76.8-76 79s-88.9-52.4-140.6-52.4c-53.1 0-79.6 42.7-144.6 52.4s-76-35.4-76-79c-0.1 0 49.4-145.7 114-145.7z m220.6-45H399.2C155.1 566.5 95 67.8 95 67.8c0-65.7 51.3-131.4 114.1-131.4h600.8c62.8 0 114.1 65.7 114.1 131.4-0.4 0-60.1 498.7-304.2 498.7z m24.8-383.3c14.6 0 26.5-12.4 26.5-27.6 0-15.2-11.9-27.6-26.5-27.6H536.3v-72.6c0-15.2-11.9-27.6-26.5-27.6s-26.5 12.4-26.5 27.6V128H374.4c-14.6 0-26.5 12.4-26.5 27.6 0 15.2 11.9 27.6 26.5 27.6h108.8v34.9H374.4c-14.6 0-26.5 12.4-26.5 27.6s11.9 27.6 26.5 27.6h73.4l-75.2 139.3c-7.5 13.3-3.1 30.3 9.7 37.7 12.8 7.8 29.2 3.2 36.3-10.1l90.6-166.8h4.4l90.6 166.8c7.5 13.3 23.4 17.9 36.3 10.1 12.8-7.8 17.2-24.4 9.7-37.7L575 273.3h69c14.6 0 26.5-12.4 26.5-27.6s-11.9-27.6-26.5-27.6H535.8v-34.9h108.8z"  horiz-adv-x="1024" />

    
    <glyph glyph-name="dianzan" unicode="&#59346;" d="M558.545455-128C516.654545-128 65.163636 102.4 6.981818 493.381818c-4.654545 23.272727-6.981818 48.872727-6.981818 74.472727 0 9.309091 0 16.290909 2.327273 25.6C16.290909 765.672727 148.945455 896 307.2 896c90.763636 0 174.545455-41.890909 230.4-111.709091 9.309091-11.636364 25.6-13.963636 37.236364-4.654545l4.654545 4.654545c55.854545 69.818182 139.636364 111.709091 230.4 111.709091C970.472727 896 1105.454545 758.690909 1117.090909 586.472727c0-9.309091 2.327273-16.290909 2.327273-25.6 0-23.272727-2.327273-46.545455-6.981818-69.818182C1049.6 102.4 600.436364-128 558.545455-128zM307.2 835.490909C176.872727 835.490909 69.818182 728.436364 55.854545 586.472727v-18.618182c0-20.945455 2.327273-44.218182 4.654546-65.163636C114.036364 162.909091 507.345455-48.872727 558.545455-67.490909c48.872727 16.290909 444.509091 230.4 498.036363 567.854545 4.654545 18.618182 6.981818 39.563636 6.981818 58.181819V579.490909c-13.963636 144.290909-123.345455 256-253.672727 256-74.472727 0-141.963636-34.909091-188.509091-93.090909-25.6-34.909091-76.8-39.563636-109.381818-13.963636l-13.963636 13.963636c-46.545455 58.181818-116.363636 90.763636-190.836364 93.090909zM930.909091 458.472727c-13.963636 4.654545-30.254545-4.654545-34.909091-20.945454v-2.327273c-2.327273-13.963636-6.981818-25.6-13.963636-37.236364-6.981818-13.963636-4.654545-32.581818 9.309091-41.890909 4.654545-2.327273 9.309091-4.654545 13.963636-4.654545 9.309091 0 18.618182 4.654545 23.272727 13.963636 9.309091 16.290909 16.290909 34.909091 20.945455 53.527273 4.654545 18.618182-4.654545 34.909091-18.618182 39.563636z m-23.272727 55.854546h4.654545c16.290909 4.654545 25.6 18.618182 23.272727 34.909091-9.309091 74.472727-62.836364 137.309091-134.981818 160.581818-13.963636 4.654545-30.254545-4.654545-34.909091-18.618182v-2.327273c-4.654545-16.290909 4.654545-32.581818 18.618182-37.236363 51.2-16.290909 88.436364-60.509091 95.418182-114.036364 2.327273-11.636364 13.963636-23.272727 27.927273-23.272727z"  horiz-adv-x="1119" />

    
    <glyph glyph-name="liulanjilu" unicode="&#58940;" d="M716.8 284.444444h-227.555556c-42.666667 0-56.888889 19.911111-56.888888 56.888889v227.555556c0 14.222222 17.066667 25.6 28.444444 28.444444 8.533333 0 28.444444-8.533333 28.444444-28.444444v-227.555556h227.555556c19.911111 0 28.444444-17.066667 28.444444-28.444444s-8.533333-28.444444-28.444444-28.444445zM512 839.111111c250.311111 0 455.111111-204.8 455.111111-455.111111s-204.8-455.111111-455.111111-455.111111S56.888889 133.688889 56.888889 384 261.688889 839.111111 512 839.111111m0 56.888889C230.4 896 0 665.6 0 384s230.4-512 512-512 512 230.4 512 512S793.6 896 512 896z"  horiz-adv-x="1024" />

    
    <glyph glyph-name="top" unicode="&#58663;" d="M186.181818 709.818182l651.636364 0 0-46.545455-651.636364 0 0 46.545455ZM509.207273 554.216727l-279.738182-279.738182a23.272727 23.272727 0 1 0-32.907636 32.907637l296.168727 296.215273a23.179636 23.179636 0 0 0 32.954182 0l296.215272-296.215273a23.272727 23.272727 0 1 0-32.907636-32.907637l-279.784727 279.738182zM488.727273 570.181818l46.545454 0 0-605.090909-46.545454 0 0 605.090909Z"  horiz-adv-x="1024" />

    
    <glyph glyph-name="sousuo1" unicode="&#58894;" d="M794.688 442.688a341.312 341.312 0 1 0-682.688 0 341.312 341.312 0 0 0 682.688 0z m-96 0a245.312 245.312 0 1 1-490.624 0 245.312 245.312 0 0 1 490.624 0zM675.008 217.728l203.648-154.24a48 48 0 1 1 57.92 76.48l-203.584 154.24a48 48 0 1 1-57.984-76.48z"  horiz-adv-x="1024" />

    
    <glyph glyph-name="shengrijiniantixing" unicode="&#58653;" d="M830.464 459.776c-5.12 133.632-102.4 254.464-231.424 287.232V752.64c0 51.712-35.328 95.232-87.04 95.232-52.736 0-87.04-43.52-87.04-95.232v-5.632c-133.12-36.352-222.72-150.016-231.424-287.232v-229.888c0-10.24-4.096-20.48-11.264-27.648l-58.88-60.416c-10.752-11.264-16.896-26.112-16.896-41.472 0-32.768 26.624-59.392 59.392-59.392h203.776c14.848-66.56 72.192-115.712 141.824-115.712s127.488 49.152 141.824 115.712h203.776c32.768 0 59.392 26.624 59.392 59.392 0 15.36-6.144 30.208-16.896 41.472l-58.88 60.416c-7.168 7.68-11.264 17.408-11.264 27.648V459.776zM512 793.088c17.408 0 28.672-14.848 28.672-34.304H483.328c0 19.456 11.264 34.304 28.672 34.304z m0-811.008c-36.864-0.512-70.144 23.04-81.408 58.368h162.304c-10.752-35.328-44.032-58.88-80.896-58.368z m347.136 115.712H164.864v3.072l75.264 77.824c7.168 7.68 11.264 17.408 11.264 27.648v250.88c0 124.928 137.216 243.2 261.12 243.2 125.44 0 260.096-117.248 260.096-242.688v-250.368c0-10.24 4.096-20.48 11.264-27.648l75.776-77.824-0.512-4.096z"  horiz-adv-x="1024" />

    
    <glyph glyph-name="ico" unicode="&#58631;" d="M810.77943309 870.81581768c-2.97743822-0.38836149-6.08432986-0.12945385-9.06176795-0.12945381-49.19245428 0-98.38490851 0.12945385-147.57736293-0.12945389-14.23992099 0-28.35038816-1.81235359-41.94304001-6.60214515-24.07841181-8.41449869-38.57724052-25.24349631-44.53211638-49.71026968-2.20071505-9.0617679-3.10689191-18.25298965-3.10689197-27.57366517 0-86.99297199-0.12945385-173.85648988 0.12945382-260.84946173 0-17.86462815 1.16508447-35.7292565 8.02613725-52.81716163 8.93231409-22.13660447 25.5024039-35.21144105 48.28627767-41.03686303 8.15559116-2.07126125 16.57008986-2.84798419 24.98458856-2.84798414h282.20934326c10.74466771 0 21.4893354 0.90617681 32.10454911 2.97743796 31.58673375 5.82542224 52.29934617 26.79694223 58.12476836 58.25422226 0.51781534 2.84798419-0.51781534 6.731599 3.75416085 8.02613719v300.33287909c-0.51781534 0.51781534-0.64726916 1.16508447-0.64726898 1.94180735-1.94180742 6.21378372-2.20071505 12.68647504-4.27197635 19.02971259-9.19122175 27.18530378-28.09148045 43.23757828-55.40623803 50.22808496-8.28504494 2.07126125-16.57008986 3.10689191-25.2434962 2.7185304-1.68289974-0.12945385-3.88361486-1.29453828-5.04869941 1.16508444h-115.21390613c-0.51781534-3.3657995-3.49525337-2.71853023-5.56651454-2.97743801z m127.77092753-52.68770759c5.17815323 0 10.48576004-1.16508447 15.40500532-2.71853049 8.93231409-2.84798419 13.85155957-9.83849072 13.85155956-19.54752774 0-96.83146274 0.12945385-193.6629255-0.12945389-290.49438825 0-14.49882863-11.13302909-23.30168889-27.3147575-23.43114281-49.45136197-0.38836149-98.77327011-0.12945385-148.22463197-0.12945375h-146.28282488c-5.82542224 0-11.13302909 1.68289974-16.44063619 3.49525337-11.00357535 4.01306879-12.42756741 13.59265184-12.55702113 23.17223505-0.25890753 48.54518527-0.12945385 97.09037035-0.12945379 145.63555556V790.68389862c0 8.41449869 1.94180742 16.18172838 8.93231412 22.00715058 5.9548761 4.91924543 13.33374417 5.56651471 20.19479699 5.56651468 97.60818566 0.12945385 195.21637142 0 292.69510336-0.12945392zM809.74380241 872.75762515c-51.13426177-0.12945385-102.26852338-0.12945385-153.27333134-0.1294539-12.16865969 0-24.07841181-1.29453828-35.85871008-4.01306846-15.01664411-3.49525337-28.60929578-9.96794478-38.83614814-21.61878936-13.72210571-15.66391312-19.15916646-34.82307948-19.15916644-55.14733026-0.25890753-90.09986374-0.25890753-180.32918125 0-270.42904504 0-11.78029828 0.90617681-23.69005042 3.62470719-35.21144099 3.62470721-15.14609779 9.83849072-29.12711127 21.61878914-39.4834173 15.14609779-13.33374417 33.52854131-19.41807412 53.72333807-19.4180742 95.92528589-0.12945385 191.98002567-0.12945385 287.90531173 0 12.03920599 0 24.20786555 0.64726916 35.85871031 3.88361489 24.59622711 6.99050668 43.49648598 20.58315858 51.78153075 46.34447025 2.20071505 6.86105286 2.33016897 14.11046709 4.91924542 20.84206614-4.14252252-1.29453828-3.23634571-5.17815323-3.75416087-8.02613725-5.82542224-31.58673375-26.5380345-52.42880002-58.12476853-58.25422226-10.61521385-1.94180742-21.35988146-2.97743822-32.1045492-2.97743796h-282.20934316c-8.41449869 0-16.82899758 0.77672279-24.98458863 2.84798414-22.65441982 5.82542224-39.3539635 18.90025878-48.28627752 41.03686303-6.86105286 16.95845154-8.02613723 34.95253334-8.02613726 52.81716163-0.25890753 86.99297199-0.12945385 173.85648988-0.12945383 260.84946173 0 9.32067557 0.90617681 18.51189729 3.10689185 27.57366517 5.9548761 24.46677334 20.45370474 41.29577081 44.53211654 49.71026968 13.59265184 4.78979152 27.70311884 6.4726913 41.94304 6.60214515 49.19245428 0.25890753 98.38490851 0.12945385 147.57736297 0.12945389 2.97743822 0 6.08432986-0.25890753 9.06176792 0.12945368 2.20071505 0.25890753 5.04869923-0.25890753 5.43706068 3.10689198-1.55344589-2.71853023-4.14252252-1.16508447-6.34323757-1.16508438zM5.31772077 496.95316483c2.58907652-16.18172838 7.11996047-31.58673375 18.51189704-44.01430111 14.88718999-16.44063619 34.30526401-23.30168889 55.66514551-23.43114287 97.21982425-0.38836149 194.43964844-0.38836149 291.78892662 0 12.16865969 0 24.46677334 1.29453828 36.3765254 5.0486993 31.71618767 9.96794478 50.61644656 35.34089475 50.61644645 68.7399822 0 95.79583201 0 191.46221035 0.12945377 287.25804245 0 8.28504494-1.03563059 16.31118227-3.10689185 24.3373196-7.50832192 28.99765737-31.71618767 50.61644656-61.49056794 54.75896865-5.30760677 0.77672279-10.61521385 1.42399214-16.05227454 1.42399227-2.58907652 0-5.82542224-0.77672279-6.73159895 3.10689197h-115.21390631c-1.68289974-2.71853023-4.27197626-1.16508447-6.34323741-1.1650847-53.205523-0.12945385-106.41104599 0.25890753-159.61656897-0.25890744-19.15916646-0.12945385-37.80051753-3.3657995-54.62951512-13.85155954-16.18172838-10.09739852-25.63185759-24.725681-30.6805569-42.71976315-1.03563059-3.49525337-0.25890753-7.37886811-2.4596228-10.61521373v-301.62741721c3.75416086-1.16508447 2.84798419-4.53088377 3.23634571-6.99050669z m51.13426146 299.03834078c0 10.48576004 8.02613723 18.90025878 18.77080515 21.10097381 5.69596839 1.16508447 11.39193675 1.29453828 17.08790493 1.29453829h283.50388154c5.56651471 0 10.87412145-1.03563059 16.05227456-2.58907657 9.70903702-3.10689191 13.98101332-8.93231409 13.98101333-18.90025885v-291.91838016c0-10.61521385-4.91924543-17.21735905-15.01664412-20.58315837-5.17815323-1.68289974-10.48576004-2.71853023-16.05227441-2.58907673-48.15682372 0.12945385-96.18419351 0.12945385-144.34101723 0.12945377-48.80409291 0-97.47873191-0.12945385-146.28282476 0.12945389-8.15559116 0-16.31118227 1.16508447-22.39551195 7.8966835-3.49525337 3.88361486-5.30760677 8.15559116-5.30760704 13.07483633-0.12945385 97.47873191-0.12945385 195.21637142 0 292.95401109zM3.24645922 500.57787199c0.12945385-11.5213906 3.3657995-22.39551211 8.2850449-32.49291056 13.46319809-27.70311884 37.41215609-40.13068635 66.7981749-40.38959401 96.44310115-0.77672279 192.88620233-0.25890753 289.19984979-0.25890784 12.03920599 0 24.07841181 1.03563059 35.8587102 3.88361491 35.0819871 8.67340641 56.44186868 34.17581045 56.70077625 70.42288195 0.64726916 95.53692428 0.25890753 191.07384887 0.25890772 286.61077328 0 6.34323748 0 12.68647504-1.16508446 19.02971261-3.88361486 20.97152003-13.85155957 38.05942527-31.32782616 50.48699259-14.23992099 10.09739852-30.42164942 14.23992099-47.76846206 14.75773633-2.97743822 0.12945385-6.34323748-1.55344589-8.93231419 1.16508446 0.90617681-3.88361486 4.27197626-3.10689191 6.73159892-3.10689184 5.43706076 0 10.74466771-0.77672279 16.05227462-1.4239922 29.77438022-4.14252252 53.98224598-25.76131164 61.49056795-54.75896883 2.07126125-8.02613723 3.10689191-16.05227461 3.10689183-24.33731945-0.12945385-95.79583201 0-191.46221035-0.12945387-287.2580425 0-33.26963355-18.90025878-58.64258371-50.61644648-68.73998223-11.90975228-3.75416086-24.20786555-5.04869923-36.37652541-5.04869921-97.21982425-0.25890753-194.43964844-0.38836149-291.78892641 0-21.35988146 0.12945385-40.64850174 6.99050668-55.66514572 23.43114263-11.39193675 12.55702125-15.9228207 27.83257282-18.51189724 44.0143015-0.38836149 2.45962274 0.51781534 5.9548761-3.36579953 6.73159877 1.68289974-0.12945385 1.16508447-1.68289974 1.16508445-2.71853036zM97.48884543-114.58671470000002c2.71853023 0.38836149 5.56651471 0.12945385 8.4144988 0.12945382h266.67488399c10.87412145 0 21.4893354 1.29453828 31.97509532 4.01306863 33.01072598 8.54395255 53.59388444 34.82307948 53.72333812 68.8694361 0.12945385 32.75181799 0 65.63309038 0 98.38490863v191.59166412c0 41.81358608-27.70311884 72.75305081-69.38725131 77.28393484-14.75773631 1.55344589-29.64492628 2.20071505-44.53211676 2.58907664-44.66157041 0.90617681-89.32314068-0.64726916-133.85525709-1.68289974-42.71976292-1.03563059-85.43952596-0.25890753-128.02983506-0.9061769-14.88718999-0.25890753-29.25656495-3.49525337-42.33140138-10.48575987-17.60572048-9.32067557-28.35038816-23.94895798-33.26963366-43.23757825-0.90617681-3.62470721-0.12945385-8.41449869-4.78979163-10.35630626v-302.92195542c2.58907652-7.11996047 2.84798419-14.75773631 5.04869934-22.13660457 7.63777588-26.79694223 25.11404235-43.10812458 51.52262304-50.35753883 8.41449869-2.33016897 17.08790514-2.97743822 25.76131171-2.71853033 1.81235359 0 4.27197626 1.42399214 5.69596839-1.16508437h2.58907655c0.25890753 2.97743822 2.71853023 2.84798419 4.78979163 3.10689185z m-14.75773632 52.55825381c-15.79336691 0-26.79694223 8.54395255-26.66748844 26.53803462 0.51781534 94.88965529 0.25890753 189.77931061 0.12945383 284.7984197 0 15.27555163 9.0617679 23.43114273 23.69005045 23.94895806 96.57255505 3.10689191 193.01565633 0.64726916 289.58821142 1.03563064 8.28504494 0 17.34681292 0.51781534 25.37295-3.88361499 6.99050668-3.88361486 11.00357535-9.32067557 11.00357532-17.73517417-0.12945385-48.54518527 0-97.09037035 0-145.6355556 0-48.15682372-0.25890753-96.18419351 0.12945383-144.34101729 0.12945385-15.66391312-10.09739852-22.78387356-24.20786569-24.98458862-11.13302909-1.68289974-22.00715062 0-33.01072597 0.12945391-88.67587162 0.25890753-177.35174309 0.12945385-266.02761475 0.12945374zM99.68956051-116.52852209000002c87.76969486 0.12945385 175.66884339 0.12945385 263.43853826 0 12.16865969 0 24.20786555 0.25890753 36.24707161 2.71853033 16.18172838 3.23634571 30.81001086 10.09739852 42.07249369 22.13660442 12.55702125 13.46319809 18.77080514 30.29219559 18.77080509 48.6746392 0.25890753 96.18419351 0.12945385 192.49784099 0.12945382 288.6820346 0 8.15559116-0.51781534 16.05227461-2.58907654 23.94895788-6.86105286 25.76131164-22.39551211 43.62593973-47.50955461 53.4644306-17.21735905 6.731599-35.34089475 6.4726913-53.07606912 6.86105289-29.90383383 0.64726916-59.80766815 1.16508447-89.7115022-0.64726921-24.59622711-1.55344589-49.45136197-0.38836149-74.17704293-1.29453833-35.7292565-1.16508447-71.58796644-0.38836149-107.44667661-0.25890755-8.28504494 0-16.44063619-0.77672279-24.59622709-2.5890765-23.81950417-5.43706076-42.07249385-17.86462815-52.55825402-40.519048-3.3657995-7.37886811-3.62470721-15.53445924-6.73159888-22.91332734 4.78979152 1.94180742 3.88361486 6.731599 4.78979162 10.35630619 4.91924543 19.2886202 15.79336691 33.91690271 33.2696336 43.23757826 13.20429052 6.99050668 27.44421134 10.22685236 42.33140143 10.48575997 42.71976292 0.64726916 85.31007205-0.12945385 128.02983507 0.90617684 44.66157041 1.03563059 89.19368701 2.58907652 133.85525747 1.68289972 14.88718999-0.25890753 29.77438022-0.90617681 44.53211656-2.58907656 41.68413229-4.53088377 69.25779756-35.47034864 69.38725111-77.28393483v-191.59166413c0-32.75181799 0.12945385-65.63309038 0-98.38490872-0.25890753-34.17581045-20.71261239-60.32548347-53.72333818-68.86943591-10.48576004-2.71853023-21.10097385-4.01306879-31.9750953-4.0130688h-266.67488412c-2.84798419 0-5.56651471 0.12945385-8.41449871-0.12945381-2.07126125-0.25890753-4.53088377 0-4.78979148-3.10689187 1.94180742 2.45962274 4.78979152 1.03563059 7.11996046 1.03563066zM35.0921006 858.64715793c16.82899758 10.35630615 35.47034864 13.72210571 54.62951526 13.85155935 53.205523 0.51781534 106.41104599 0.12945385 159.61656881 0.25890777 2.07126125 0 4.66033777-1.55344589 6.34323757 1.16508448-2.20071505-1.29453828-4.66033777-0.64726916-6.9905067-0.64726914-57.99531459-0.38836149-115.99062911 1.03563059-173.98594367-0.77672311-24.46677334-0.77672279-45.1793857-10.48576004-60.19602967-30.55110314-8.15559116-10.87412145-11.78029828-23.30168889-12.55702122-36.63543295 2.33016897 3.10689191 1.55344589 6.99050668 2.45962271 10.61521379 5.17815323 17.9940821 14.49882863 32.62236441 30.68055723 42.71976289zM936.60855307 872.75762515c8.54395255 0.38836149 16.95845154-0.64726916 25.24349634-2.71853042 27.18530378-6.99050668 46.21501629-23.04278123 55.40623799-50.22808504 2.07126125-6.21378372 2.33016897-12.81592902 4.27197635-19.02971255v0.51781533c0.51781534 36.37652545-31.58673375 68.86943604-68.22216694 71.5879664-7.24941434 0.51781534-14.49882863-0.64726916-21.74824305 1.16508448 1.03563059-2.71853023 3.3657995-1.42399214 5.04869941-1.2945382zM84.28455493-116.52852209000002c-8.67340641-0.25890753-17.34681292 0.38836149-25.76131147 2.71853033-26.40858075 7.24941434-43.88484746 23.56059653-51.52262326 50.35753864-2.07126125 7.37886811-2.33016897 15.01664411-5.04869922 22.13660455 1.42399214-6.86105286 1.03563059-13.98101332 2.7185305-20.84206606 7.11996047-29.51547243 33.01072598-52.55825385 62.91455989-54.37060746 7.50832192-0.51781534 15.01664411 0.77672279 22.39551195-1.03563066-1.42399214 2.45962274-3.88361486 1.16508447-5.69596839 1.03563066zM636.79348919 164.38628282000002c-15.9228207-0.25890753-26.40858075-10.74466771-26.40858051-25.89076534V-83.90615773000002c0-15.9228207 11.00357535-26.02021942 26.92639602-25.76131133 16.69954371 0.25890753 27.18530378 8.93231409 27.31475768 25.50240378 0.25890753 74.3064968 0.12945385 148.74244737 0 223.04894412 0 15.53445924-10.87412145 25.76131164-27.83257297 25.50240397zM964.31167207 164.12737520999997c-12.81592902 2.33016897-30.16274163-6.34323748-30.16274183-23.56059653-0.25890753-37.80051753 0-75.47158125 1.7e-7-113.27209884v-112.62482964c0-2.07126125-0.12945385-4.40143017 0.51781518-6.34323754 4.27197626-12.16865969 18.64135116-20.97152003 30.42164952-18.12353571 14.75773631 3.49525337 23.17223504 9.32067557 23.30168869 27.70311904 0.25890753 71.84687407 0.12945385 143.69374819 0.12945396 215.54062224-0.12945385 18.64135116-5.9548761 27.31475756-24.20786569 30.68055672zM844.30797427 86.58453280000003c-3.3657995 12.16865969-16.82899758 21.74824297-28.6092958 19.5475279-16.05227461-3.10689191-25.11404235-8.54395255-25.24349627-27.05584991-0.38836149-53.205523-0.12945385-106.54049979-0.12945378-159.74602274 0-17.86462815 7.37886811-25.89076541 22.65441974-28.73874963 14.36937486-2.71853023 31.58673375 5.82542224 31.71618767 24.72568089v82.20318039 83.49771853c0 1.68289974 0 3.75416086-0.38836156 5.56651457zM808.44926422 322.83776725999996c-11.26248298-2.45962274-18.12353582-13.20429052-18.1235358-25.63185778V182.76872626c0-16.95845154 5.17815323-27.18530378 23.43114263-30.68055704 13.33374417-2.45962274 31.06891869 6.731599 30.93946478 23.94895813-0.12945385 20.45370474 0 40.90740946 0 61.49056787 0 19.80643549-0.25890753 39.61287114 0 59.54876055 0.38836149 24.59622711-18.90025878 29.51547243-36.24707161 25.76131149zM654.39920988 319.47196777c-6.34323748 4.40143017-13.07483655 4.27197626-19.93588944 4.27197632-13.59265184 0-23.94895798-10.22685236-23.94895791-23.69005034v-33.65799513c0-11.65084445-0.12945385-23.30168889 0-34.95253325 0.12945385-5.9548761 1.68289974-11.26248298 6.34323741-15.92282077 6.731599-6.731599 14.49882863-8.67340641 23.56059644-8.41449877 12.81592902 0.38836149 24.33731947 11.5213906 24.33731965 24.20786566 0.12945385 22.91332745 0.25890753 45.69720095-0.12945386 68.61052847 0 7.89668349-3.10689191 14.62828234-10.22685235 19.54752758zM986.18936896 308.46839213c-2.84798419 8.02613723-12.68647504 15.27555163-23.17223508 15.5344595-18.51189729 0.64726916-30.5511032-10.22685236-29.12711132-29.51547252 0.64726916-9.0617679 0.12945385-18.12353582 0.12945412-27.18530376v-32.36345672c0-1.94180742 0-3.88361486 0.51781521-5.69596851 4.14252252-13.33374417 16.69954371-20.06534315 30.93946461-18.12353566 14.23992099 2.07126125 22.52496592 10.87412145 22.78387355 25.50240388 0.38836149 20.45370474 0.12945385 41.03686327 0.12945375 61.49056798 0 3.75416086-1.03563059 7.11996047-2.20071484 10.35630625zM304.87387648 694.37025121c-2.45962274 9.45012946-10.22685236 16.44063619-19.93588947 17.73517436-1.68289974 0.25890753-3.49525337 0.51781534-5.17815293 0.51781526-0.77672279 0-1.94180742-0.25890753-2.20071501 1.03563071h-37.28270226c-0.51781534-0.90617681-1.42399214-0.38836149-2.07126125-0.38836139-17.21735905 0-34.43471804 0.12945385-51.65207723-0.12945393-6.21378372 0-12.29811359-1.16508447-17.735174-4.530884-5.30760677-3.23634571-8.28504494-8.02613723-9.96794492-13.85155948-0.25890753-1.16508447 0-2.45962274-0.77672289-3.36579945v-97.73763957c1.29453828-0.25890753 0.90617681-1.42399214 1.03563077-2.20071501 0.90617681-5.30760677 2.33016897-10.22685236 5.95487591-14.23992092 4.78979152-5.30760677 11.13302909-7.50832192 17.99408187-7.63777592 31.45728003-0.12945385 63.04401394-0.12945385 94.501294 0 4.01306879 0 7.89668349 0.38836149 11.78029821 1.68289974 10.22685236 3.23634571 16.44063619 11.5213906 16.44063602 22.26605809v93.07730194c0.12945385 2.58907652-0.25890753 5.17815323-0.90617682 7.76722957zM866.05621727 704.33819591c-2.45962274 9.45012946-10.22685236 16.44063619-19.93588955 17.7351742-1.68289974 0.25890753-3.49525337 0.51781534-5.17815279 0.51781557-0.77672279 0-1.94180742-0.25890753-2.20071526 1.03563047h-37.28270219c-0.51781534-0.90617681-1.42399214-0.38836149-2.07126117-0.38836152-17.21735905 0-34.43471804 0.12945385-51.65207707-0.1294539-6.21378372 0-12.29811359-1.16508447-17.7351743-4.5308839-5.30760677-3.23634571-8.28504494-8.02613723-9.96794476-13.8515593-0.25890753-1.16508447 0-2.45962274-0.77672294-3.36579965v-97.73763947c1.29453828-0.25890753 0.90617681-1.42399214 1.0356306-2.20071517 0.90617681-5.30760677 2.33016897-10.22685236 5.95487606-14.23992089 4.78979152-5.30760677 11.13302909-7.50832192 17.99408202-7.6377759 31.45728003-0.12945385 63.04401394-0.12945385 94.50129375 0 4.01306879 0 7.89668349 0.38836149 11.78029842 1.6829 10.22685236 3.23634571 16.44063619 11.5213906 16.44063612 22.2660581v93.07730192c0.25890753 2.58907652-0.25890753 5.30760677-0.90617694 7.76722944zM304.09715359 152.21762308999996c-2.45962274 9.45012946-10.22685236 16.44063619-19.93588953 17.73517429-1.68289974 0.25890753-3.49525337 0.51781534-5.17815292 0.51781536-0.77672279 0-1.94180742-0.25890753-2.20071507 1.03563061h-37.28270216c-0.51781534-0.90617681-1.42399214-0.38836149-2.07126133-0.38836154-17.21735905 0-34.43471804 0.12945385-51.65207699-0.12945377-6.21378372 0-12.29811359-1.16508447-17.73517433-4.53088391-5.30760677-3.23634571-8.28504494-8.02613723-9.96794474-13.85155955-0.25890753-1.16508447 0-2.45962274-0.77672298-3.36579949v-97.73763944c1.29453828-0.25890753 0.90617681-1.42399214 1.03563068-2.20071507 0.90617681-5.30760677 2.33016897-10.22685236 5.95487594-14.23992111 4.78979152-5.30760677 11.13302909-7.50832192 17.99408205-7.63777571 31.45728003-0.12945385 63.04401394-0.12945385 94.50129386 0 4.01306879 0 7.89668349 0.38836149 11.78029824 1.68289964 10.22685236 3.23634571 16.44063619 11.5213906 16.44063605 22.26605841v93.07730168c0.12945385 2.58907652-0.25890753 5.17815323-0.90617677 7.7672296z"  horiz-adv-x="1024" />

    
    <glyph glyph-name="shouye" unicode="&#58981;" d="M798.035009-128H599.72589c-20.790472 0-36.783143 15.992671-36.783143 36.783143V225.438026H449.394784v-316.654883c0-20.790472-15.992671-36.783143-36.783143-36.783143H217.501057c-60.772149 0-110.349429 49.57728-110.349429 110.349429V305.40138H86.361156c-47.978013 0-86.360423 38.38241-86.360423 86.360423 0 22.389739 7.996335 43.180211 23.989006 59.172882L396.61897 845.953655c60.772149 63.970683 161.525976 67.169218 227.095926 6.397069 1.599267-3.198534 3.198534-4.797801 6.397069-6.397069l372.629231-395.01897c33.584609-33.584609 31.985342-87.95969-1.599267-121.544298-15.992671-15.992671-38.38241-23.989006-60.77215-23.989007h-31.985341v-323.051951c0-60.772149-49.57728-110.349429-110.349429-110.349429z m-159.926709 73.566286h159.926709c20.790472 0 38.38241 17.591938 38.38241 38.38241V342.184523c0 20.790472 15.992671 36.783143 36.783143 36.783143h68.768484c4.797801 0 9.595603 3.198534 11.19487 7.996336 1.599267 4.797801 1.599267 9.595603-3.198534 14.393403L575.736884 794.777109c-33.584609 35.183876-87.95969 36.783143-123.143566 3.198534-1.599267 0-3.198534-1.599267-3.198534-3.198534L76.765553 401.357405c-4.797801-4.797801-4.797801-12.794137 0-17.591938 3.198534-3.198534 6.397068-3.198534 9.595603-3.198534H145.534038c20.790472 0 36.783143-15.992671 36.783143-36.783143V-16.051304c0-20.790472 17.591938-38.38241 38.38241-38.38241h158.327441V225.438026c0 41.580944 33.584609 73.566286 73.566286 73.566286h113.547963c41.580944 0 73.566286-33.584609 73.566286-73.566286l-1.599267-279.87174z"  horiz-adv-x="1027" />

    
    <glyph glyph-name="kefu1" unicode="&#58909;" d="M264.655912 102.71116h-25.130431C107.661436 102.71116 0.373392 209.999204 0.373392 341.863249s107.276729 239.152088 239.152089 239.152088h25.130431V102.71116z m-50.260862 426.380022c-92.318409-12.321945-163.760796-91.594254-163.760796-187.227933s71.442387-174.905989 163.760796-187.227934V529.091182zM817.061481 102.71116H791.93105V581.015337h25.130431c131.864044 0 239.152088-107.276729 239.152088-239.152088S948.925525 102.71116 817.061481 102.71116z m25.130431 426.380022v-374.455867c92.318409 12.321945 163.760796 91.594254 163.760795 187.227934s-71.442387 174.905989-163.760795 187.227933zM207.968177 526.601901c0.158409 85.178696 33.401635 165.231735 93.653569 225.483668 60.399028 60.399028 140.700994 93.653569 226.105989 93.653569s165.718276-33.265856 226.105989-93.653569c60.251934-60.251934 93.483845-140.304972 93.653569-225.483668h50.260862c-0.158409 98.598188-38.629127 191.278674-108.374277 261.012508C719.481635 857.506652 626.563536 896 527.727735 896S335.973834 857.506652 266.081591 787.625724c-69.745149-69.745149-108.204552-162.41432-108.374276-261.012509h50.260862zM526.471779-128c-46.764552 0-84.805304 38.040751-84.805304 84.805304s38.040751 84.805304 84.805304 84.805304 84.805304-38.040751 84.805304-84.805304S573.236331-128 526.471779-128z m0 119.361061c-19.05432 0-34.555757-15.501436-34.555757-34.555757s15.501436-34.555757 34.555757-34.555757 34.555757 15.501436 34.555757 34.555757-15.501436 34.555757-34.555757 34.555757zM615.282564-67.94042c-7.264177 0-11.801459 0.226298-12.740597 0.282873l2.794784 50.181657c1.176751-0.056575 117.844862-5.623514 179.975072 53.259315 25.922475 24.564685 38.515978 56.472751 38.515978 97.545901h50.260862c0-54.933923-18.296221-100.080442-54.379492-134.194917-64.947624-61.37211-168.343337-67.074829-204.426607-67.074829z"  horiz-adv-x="1056" />

    
    <glyph glyph-name="gouwuche-copy" unicode="&#58633;" d="M347.136 112.63999999999999q19.456 0 36.864-7.168t30.72-19.968 20.48-30.208 7.168-36.864-7.168-36.864-20.48-30.208-30.72-20.48-36.864-7.68q-20.48 0-37.376 7.68t-30.208 20.48-20.48 30.208-7.168 36.864 7.168 36.864 20.48 30.208 30.208 19.968 37.376 7.168zM773.12 110.59199999999998q19.456 0 37.376-7.168t30.72-19.968 20.48-30.208 7.68-36.864-7.68-36.864-20.48-30.208-30.72-20.48-37.376-7.68-36.864 7.68-30.208 20.48-20.48 30.208-7.68 36.864 7.68 36.864 20.48 30.208 30.208 19.968 36.864 7.168zM945.152 692.2239999999999q28.672 0 44.544-7.68t22.528-18.944 6.144-24.064-3.584-22.016-12.8-37.888-22.016-62.976-24.064-68.096-17.92-53.248q-13.312-40.96-33.792-56.832t-50.176-15.872l-34.816 0-66.56 0-87.04 0-95.232 0-253.952 0 15.36-92.16 516.096 0q49.152 0 49.152-41.984 0-20.48-9.728-35.328t-38.4-14.848l-49.152 0-95.232 0-117.76 0-119.808 0-98.304 0-56.32 0q-20.48 0-34.304 9.216t-23.04 24.064-14.848 32.256-8.704 32.768q-1.024 6.144-5.632 29.696t-11.264 58.88-14.848 78.848-16.384 87.552q-19.456 103.424-44.032 230.4l-76.8 0q-15.36 0-25.6 7.68t-16.896 18.432-9.216 23.04-2.56 22.528q0 20.48 13.824 33.792t37.376 13.312l22.528 0 20.48 0 25.6 0 34.816 0q20.48 0 32.768-6.144t19.456-15.36 10.24-19.456 5.12-17.408q2.048-8.192 4.096-23.04t4.096-30.208q3.072-18.432 6.144-38.912l700.416 0z"  horiz-adv-x="1024" />

    
    <glyph glyph-name="taobao1" unicode="&#58885;" d="M529.992 877.87c-247.977 0-449.009-198.385-449.009-443.115 0-218.967 160.998-400.722 372.516-436.573l76.488-118.19 76.492 118.19c211.528 35.85 372.526 217.606 372.526 436.573 0 244.725-201.026 443.115-449.013 443.115zM326.287 660.065c30.935 0 56.018-21.985 56.018-49.1 0-27.137-25.083-49.106-56.018-49.106-30.93 0-56.018 21.97-56.018 49.105 0 27.116 25.094 49.101 56.018 49.101z m46.807-295.106c-14.832-44.841-11.11-28.176-69.831-152.883l-85.11 51.87s94.833 84.373 114.396 122.937c20.603 40.647-22.779 62.402-22.779 62.402l-65.198 39.655 35.19 53.089c49.265-35.687 52.859-38.697 86.01-71.194 25.688-25.185 22.472-60.093 7.322-105.876z m462.336-58.123c-16.537-152.145-218.992-95.61-218.992-95.61l11.028 43.51 46.818-9.862c86.778-5.376 78.254 68.665 78.254 68.665V528.968c0.757 81.664-78.649 90.24-221.067 40.402l33.147-8.776c-2.867-9.59-13.655-24.55-27.371-40.832h190.581v-37.694H620.575v-47.114h106.813v-37.703H620.575v-79.012c15.943 5.197 30.899 12.262 43.899 21.642l-9.462 34.493 50.452 15.304 41.902-100.552-62.054-25.154-11.008 40.09c-27.653-20.818-85.304-50.837-185.943-48.17-107.438-2.698-79.887 118.482-79.887 118.482l2.764 1.342h75.47c-0.477-15.53-7.025-40.96 1.93-54.769 7.357-11.32 26.178-13.281 38.282-13.88 1.362-0.087 2.75-0.108 4.137-0.159v90.343H421.494v37.703h109.552v47.114h-28.093c-24.632-25.569-47.15-46.679-47.15-46.679l-33.07 28.258c23.455 24.15 46.976 62.402 61.455 87.961-11.776-4.7-23.89-9.723-36.372-15.068-12.319-15.094-26.302-30.664-42.036-45.957 0.64-0.906-53.97 29.896-53.97 29.896 56.464 47.124 88.141 148.096 88.141 148.096l78.505-21.53s-6.507-14.904-19.957-37.755c314.506 87.056 332.8-53.37 332.8-53.37s20.674-96.943 4.131-249.084z m0 0"  horiz-adv-x="1024" />

    
    <glyph glyph-name="yuyin" unicode="&#59001;" d="M512 896c-131.33913 0-238.191304-106.852174-238.191304-238.191304v-269.356522c0-62.330435 24.486957-124.66087 69.008695-169.182609s104.626087-69.008696 169.182609-69.008695c62.330435 0 124.66087 24.486957 169.182609 69.008695s69.008696 104.626087 69.008695 169.182609V657.808696C750.191304 789.147826 643.33913 896 512 896z m120.208696-491.965217c0-15.582609-13.356522-28.93913-28.939131-28.939131h-178.086956c-15.582609 0-28.93913 13.356522-28.939131 28.939131 0 15.582609 13.356522 28.93913 28.939131 28.93913h178.086956c15.582609 0 28.93913-13.356522 28.939131-28.93913z m0 117.982608c0-15.582609-13.356522-28.93913-28.939131-28.93913h-178.086956c-15.582609 0-28.93913 13.356522-28.939131 28.93913 0 15.582609 13.356522 28.93913 28.939131 28.939131h178.086956c15.582609 2.226087 28.93913-11.130435 28.939131-28.939131z m0 120.208696c0-15.582609-13.356522-28.93913-28.939131-28.93913h-178.086956c-15.582609 0-28.93913 13.356522-28.939131 28.93913 0 15.582609 13.356522 28.93913 28.939131 28.93913h178.086956c15.582609 0 28.93913-13.356522 28.939131-28.93913zM870.4 386.226087v89.043478c0 15.582609-13.356522 28.93913-28.93913 28.939131-15.582609 0-28.93913-13.356522-28.939131-28.939131v-86.817391c0-173.634783-142.469565-309.426087-316.104348-300.521739-155.826087 8.904348-280.486957 138.017391-280.486956 298.295652v89.043478c0 15.582609-13.356522 28.93913-28.939131 28.939131-15.582609 0-28.93913-13.356522-28.93913-28.939131v-89.043478c0-178.086957 149.147826-322.782609 318.330435-351.721739v-102.4h-207.026087c-15.582609 0-28.93913-13.356522-28.939131-28.939131 0-15.582609 13.356522-28.93913 28.939131-28.93913h494.191304c15.582609 0 28.93913 13.356522 28.939131 28.93913 0 15.582609-13.356522 28.93913-28.939131 28.939131H556.521739v102.4c164.730435 28.93913 313.878261 175.86087 313.878261 351.721739z"  horiz-adv-x="1024" />

    
    <glyph glyph-name="sort" unicode="&#58632;" d="M315.1 896H157.5C70.9 896 0 825.1 0 738.5V581c0-86.6 70.9-157.5 157.5-157.5H315c86.6 0 157.5 70.9 157.5 157.5V738.5C472.6 825.1 401.7 896 315.1 896z m551.4 0H708.9c-86.6 0-157.5-70.9-157.5-157.5V581c0-86.6 70.9-157.5 157.5-157.5h157.5c86.6 0 157.5 70.9 157.5 157.5V738.5C1024 825.1 953.1 896 866.5 896zM315.1 344.6H157.5C70.9 344.6 0 273.70000000000005 0 187.10000000000002v-157.5C0-57.10000000000002 70.9-128 157.5-128H315c86.6 0 157.5 70.9 157.5 157.5V187.10000000000002c0.1 86.6-70.8 157.5-157.4 157.5z m551.4 0H708.9c-86.6 0-157.5-70.9-157.5-157.5v-157.5c0-86.6 70.9-157.5 157.5-157.5h157.5c86.6 0 157.5 70.9 157.5 157.5V187.10000000000002c0.1 86.6-70.8 157.5-157.4 157.5z"  horiz-adv-x="1024" />

    
    <glyph glyph-name="guanyu" unicode="&#59150;" d="M512-42.666667C276.352-42.666667 85.333333 148.352 85.333333 384S276.352 810.666667 512 810.666667s426.666667-191.018667 426.666667-426.666667-191.018667-426.666667-426.666667-426.666667z m-42.666667 298.666667v-85.333333h85.333334v85.333333h-85.333334z m0 341.333333v-256h85.333334V597.333333h-85.333334z"  horiz-adv-x="1024" />

    
    <glyph glyph-name="leimupinleifenleileibie" unicode="&#58636;" d="M315.1 896H157.5C70.9 896 0 825.1 0 738.5V581c0-86.6 70.9-157.5 157.5-157.5H315c86.6 0 157.5 70.9 157.5 157.5V738.5C472.6 825.1 401.7 896 315.1 896z m551.4 0H708.9c-86.6 0-157.5-70.9-157.5-157.5V581c0-86.6 70.9-157.5 157.5-157.5h157.5c86.6 0 157.5 70.9 157.5 157.5V738.5C1024 825.1 953.1 896 866.5 896zM315.1 344.6H157.5C70.9 344.6 0 273.70000000000005 0 187.10000000000002v-157.5C0-57.10000000000002 70.9-128 157.5-128H315c86.6 0 157.5 70.9 157.5 157.5V187.10000000000002c0.1 86.6-70.8 157.5-157.4 157.5z m551.4 0H708.9c-86.6 0-157.5-70.9-157.5-157.5v-157.5c0-86.6 70.9-157.5 157.5-157.5h157.5c86.6 0 157.5 70.9 157.5 157.5V187.10000000000002c0.1 86.6-70.8 157.5-157.4 157.5z"  horiz-adv-x="1024" />

    
    <glyph glyph-name="xiaoxi" unicode="&#58895;" d="M980.423111 30.378667l7.623111-7.623111 149.617778-150.528h-299.235556L576.284444-128H568.888889C254.748444-128 0 101.262222 0 384s254.748444 512 568.888889 512 568.888889-229.262222 568.888889-512c0.113778-137.216-59.790222-261.745778-157.354667-353.621333zM768 327.111111a85.333333 85.333333 0 1 1 0 170.666667 85.333333 85.333333 0 0 1 0-170.666667z m-398.222222 0a85.333333 85.333333 0 1 1 0 170.666667 85.333333 85.333333 0 0 1 0-170.666667z"  horiz-adv-x="1137" />

    
    <glyph glyph-name="bangzhu" unicode="&#58959;" d="M512 811.52C275.968 811.52 84.48 619.52 84.48 384s191.488-427.52 427.52-427.52 427.52 192 427.52 427.52-191.488 427.52-427.52 427.52z m38.4-651.264c-10.752-10.24-24.064-15.36-38.4-15.36h-1.024c-14.848 0-28.672 5.632-38.912 15.872s-15.872 24.064-15.872 38.912c0 15.872 5.632 28.672 16.384 38.912 9.728 10.24 23.04 15.36 38.912 15.36h13.312v-1.536c10.24-2.048 19.456-6.656 26.112-13.824 10.24-10.24 15.872-23.04 15.872-38.912 0-15.36-5.632-28.672-16.384-39.424z m80.384 236.544c-3.584-4.608-12.8-13.824-50.176-46.592-9.216-7.68-16.384-16.896-20.992-26.112-5.12-9.728-7.68-19.968-7.68-32.256v-23.04H463.872V291.84c0 24.576 4.096 44.544 12.8 60.928 8.704 17.408 30.208 41.472 67.584 73.728l9.216 10.24c9.216 11.264 13.312 22.528 13.312 33.792 0 16.384-4.608 29.184-13.312 38.4-8.704 8.704-22.016 13.312-39.424 13.312-21.504 0-36.864-6.144-45.568-18.944-8.704-11.776-13.312-28.672-13.312-51.2v-13.312h-87.04v13.312c0 45.056 13.312 81.92 39.936 108.544 26.624 27.136 64 40.96 110.08 40.96 40.448 0 73.728-11.264 98.816-33.792 26.112-22.528 38.912-53.76 38.4-92.672 0-30.72-8.192-57.344-24.576-78.336z"  horiz-adv-x="1024" />

    
    <glyph glyph-name="weibo" unicode="&#58989;" d="M512 384m-512 0a512 512 0 1 1 1024 0 512 512 0 1 1-1024 0ZM613.888 367.616c-19.968 18.432-46.08 32.256-78.848 41.472-32.256 8.704-66.56 11.264-103.424 7.68-55.808-6.144-102.4-23.552-139.264-53.76-36.864-29.696-53.76-63.488-50.176-100.352 2.048-24.064 13.312-46.08 33.28-64.512 19.968-18.432 46.08-32.256 78.848-41.472s66.56-11.776 103.424-7.68c55.808 6.144 102.4 23.552 139.264 53.76 36.864 30.208 53.76 64 49.664 100.864-1.536 23.552-12.8 45.056-32.768 64zM528.384 313.856c-11.776 22.528-31.744 37.888-59.392 45.056-26.624 7.168-52.736 4.608-79.36-7.168-26.112-11.776-45.056-29.184-56.832-52.736-11.776-24.064-12.8-47.616-2.56-70.656s28.672-39.424 55.296-47.616c28.16-9.216 56.32-7.68 84.48 4.608 28.16 11.776 48.64 31.232 59.392 56.832 11.776 25.088 11.264 49.152-1.024 71.68z m-99.84-77.312c-5.632-8.704-13.312-14.336-24.064-18.432-10.24-3.584-19.456-3.072-28.16 1.024-8.704 4.096-14.336 10.24-16.384 18.944-2.048 8.704-0.512 17.408 4.608 26.112 5.12 8.704 12.8 14.336 22.528 17.408 8.704 3.072 18.944 3.072 27.648-0.512 8.704-3.584 14.336-10.24 16.896-18.944s2.048-16.896-3.072-25.6z m35.328 46.08c-1.536-3.584-4.608-6.144-8.704-7.68-3.584-1.024-7.168-1.024-10.752 0-7.168 3.584-8.704 9.216-4.608 17.408 3.584 6.656 11.776 9.728 18.944 7.68 3.072-1.024 5.632-4.096 6.656-7.168 1.024-3.584 0.512-6.656-1.536-10.24zM750.592 345.6c-8.704 13.312-18.432 23.552-30.208 31.232-12.288 7.68-25.088 13.824-38.912 17.92-3.072 1.024-5.12 2.048-6.144 2.048l-4.608 3.072c-2.048 1.536-2.56 3.072-2.048 4.608 1.024 2.56 1.536 5.12 2.048 7.68 11.264 29.184 11.264 51.712 0 67.584-11.776 15.36-30.72 23.04-57.856 23.04s-57.856-7.68-92.672-22.528l-2.048-0.512c-1.536-0.512-3.584-1.024-5.12-1.536-1.536-0.512-3.584-1.024-5.632-0.512-1.536 0-3.072 1.024-3.584 2.56-0.512 1.536-0.512 4.096 0.512 7.68 11.776 36.352 8.704 62.976-7.168 79.36-18.432 18.432-49.664 19.456-92.672 2.56-43.52-17.408-86.528-47.104-129.024-89.6-32.256-32.256-56.832-65.024-74.752-97.792-17.408-32.768-26.112-64-26.112-93.184 0-27.136 8.192-52.224 24.576-75.776 16.384-23.04 37.888-41.984 65.024-57.344 26.624-14.848 56.832-26.624 90.624-35.328 33.792-8.704 68.608-12.8 103.424-12.8 35.328 0.512 69.632 4.096 101.888 11.776 32.768 7.68 60.928 18.432 85.504 31.232 23.04 12.288 44.544 27.136 63.488 44.544 17.92 16.384 31.744 33.792 40.96 51.712 9.216 18.432 13.824 35.84 13.824 53.248-0.512 16.384-5.12 31.744-13.312 45.056z m-153.088-143.36c-36.864-30.208-83.456-47.616-139.264-53.76-36.864-3.584-71.168-1.024-103.424 7.68-32.256 8.704-58.368 22.528-78.848 41.472s-31.232 40.448-33.28 64.512c-3.584 36.864 12.8 70.656 50.176 100.352 36.864 30.208 83.456 47.616 139.264 53.76 36.864 3.584 71.168 1.024 103.424-7.68 32.256-8.704 58.368-22.528 78.848-41.472 19.968-18.432 31.232-40.448 33.28-64.512 3.072-36.864-13.312-70.144-50.176-100.352zM735.232 537.6c10.24-11.776 17.408-25.6 20.48-40.96 3.072-15.36 2.048-30.208-2.56-44.544-2.048-6.144-5.632-10.24-11.264-13.312-5.632-2.56-11.264-3.584-16.896-1.536-5.632 1.536-10.24 5.632-12.8 11.264s-3.584 11.264-1.536 16.896c4.608 15.872 2.048 29.696-8.704 41.984-11.264 11.776-24.576 16.384-40.448 13.312-5.632-1.024-11.776 0-16.896 3.072-5.12 3.584-8.704 7.68-9.216 14.336-1.024 6.144-0.512 11.776 3.072 16.896s7.68 8.704 13.824 9.728c30.72 6.656 62.464-3.584 82.944-27.136zM803.84 599.552c21.504-23.552 36.352-52.736 42.496-84.48 6.144-32.256 4.608-62.464-5.12-91.648-2.048-6.656-6.656-11.776-12.8-15.36-6.144-3.584-12.8-3.584-19.968-1.536-6.656 2.048-11.776 6.656-14.848 13.312-3.584 6.144-3.584 12.8-2.048 19.968 7.168 20.48 8.192 42.496 3.584 65.536-4.096 22.528-14.848 43.008-30.208 59.904-15.872 17.408-34.304 29.696-55.808 36.352-20.992 6.656-43.52 7.68-65.024 3.584-6.656-1.536-13.824 0-19.968 3.584-6.144 3.584-9.728 9.216-11.264 16.384-1.536 7.168-0.512 13.312 3.584 19.456 3.584 6.144 9.728 9.728 16.384 11.264 30.72 6.656 61.44 5.12 92.16-4.608 30.72-10.24 56.832-27.136 78.848-51.712z"  horiz-adv-x="1024" />

    
    <glyph glyph-name="jinggao" unicode="&#59000;" d="M512 737.28C317.781333 737.28 158.72 578.218667 158.72 384S317.781333 30.72 512 30.72 865.28 189.781333 865.28 384 706.218667 737.28 512 737.28z m36.864-552.618667h-74.069333v74.069334h74.069333v-74.069334z m0 148.138667h-74.069333V582.314667h74.069333V332.8z"  horiz-adv-x="1024" />

    
    <glyph glyph-name="gengduo1" unicode="&#59064;" d="M511.4 831.7c-246.5 0-447-200.5-447-447s200.5-447 447-447 447 200.5 447 447c0 246.4-200.5 447-447 447z m144.2-789c-45.7-19.4-94.3-29.2-144.2-29.2-50 0-98.5 9.8-144.2 29.2-44.2 18.7-83.9 45.5-118 79.7s-60.9 73.8-79.7 118c-19.4 45.7-29.2 94.3-29.2 144.2 0 50 9.8 98.5 29.2 144.2 18.7 44.2 45.5 83.9 79.7 118s73.8 60.9 118 79.7c45.7 19.4 94.3 29.2 144.2 29.2 50 0 98.5-9.8 144.2-29.2 44.2-18.7 83.9-45.5 118-79.7s60.9-73.8 79.7-118c19.4-45.7 29.2-94.3 29.2-144.2 0-50-9.8-98.5-29.2-144.2-18.7-44.2-45.5-83.9-79.7-118s-73.8-60.9-118-79.7zM307.2 452.7c-37.6 0-68.1-30.5-68.1-68.1 0-24.3 13-46.8 34-58.9 21.1-12.2 47-12.2 68.1 0 21.1 12.2 34 34.6 34 58.9 0.1 37.6-30.4 68.1-68 68.1zM511.4 452.7c-37.6 0-68.1-30.5-68.1-68.1 0-24.3 13-46.8 34-58.9 21.1-12.2 47-12.2 68.1 0 21.1 12.2 34 34.6 34 58.9 0.1 37.6-30.4 68.1-68 68.1zM715.6 452.7c-37.6 0-68.1-30.5-68.1-68.1 0-37.6 30.5-68.1 68.1-68.1 37.6 0 68.1 30.5 68.1 68.1 0 37.6-30.5 68.1-68.1 68.1z"  horiz-adv-x="1024" />

    
    <glyph glyph-name="leimupinleifenleileibie1" unicode="&#58637;" d="M320 384L192 384c-70.4 0-128-57.6-128-128l0-128c0-70.4 57.6-128 128-128l128 0c70.4 0 128 57.6 128 128l0 128C448 326.4 390.4 384 320 384zM384 128c0-35.2-28.8-64-64-64L192 64c-35.2 0-64 28.8-64 64l0 128c0 35.2 28.8 64 64 64l128 0c35.2 0 64-28.8 64-64L384 128zM768 832l-128 0C569.6 832 512 774.4 512 704l0-128c0-70.4 57.6-128 128-128l128 0c70.4 0 128 57.6 128 128L896 704C896 774.4 838.4 832 768 832zM832 576c0-35.2-28.8-64-64-64l-128 0C604.8 512 576 540.8 576 576L576 704c0 35.2 28.8 64 64 64l128 0c35.2 0 64-28.8 64-64L832 576zM768 384l-128 0c-70.4 0-128-57.6-128-128l0-128c0-70.4 57.6-128 128-128l128 0c70.4 0 128 57.6 128 128l0 128C896 326.4 838.4 384 768 384zM832 128c0-35.2-28.8-64-64-64l-128 0c-35.2 0-64 28.8-64 64l0 128c0 35.2 28.8 64 64 64l128 0c35.2 0 64-28.8 64-64L832 128zM320 832L192 832C121.6 832 64 774.4 64 704l0-128c0-70.4 57.6-128 128-128l128 0c70.4 0 128 57.6 128 128L448 704C448 774.4 390.4 832 320 832zM384 576c0-35.2-28.8-64-64-64L192 512C156.8 512 128 540.8 128 576L128 704c0 35.2 28.8 64 64 64l128 0c35.2 0 64-28.8 64-64L384 576z"  horiz-adv-x="1024" />

    
    <glyph glyph-name="shezhi" unicode="&#58954;" d="M881 384c0 52.4 32.9 96.8 79 114.5-11 43.2-28 83.9-50.2 121.3C864.6 599.7 810 607.9 773 645c-37 37-45.2 91.7-25.1 136.8C710.4 804 669.7 821 626.5 832c-17.8-46.1-62.2-79-114.5-79-52.4 0-96.8 32.9-114.5 79-43.2-11-83.9-28-121.3-50.2 20.1-45.2 11.9-99.8-25.1-136.8-37-37-91.7-45.2-136.8-25.2C92 582.4 75 541.7 64 498.5c46.1-17.8 79-62.2 79-114.5 0-52.4-32.9-96.8-79-114.5 11-43.2 28-83.9 50.2-121.3C159.4 168.3 214 160.1 251 123c37-37 45.2-91.7 25.1-136.8C313.6-36 354.3-53 397.5-64c17.8 46.1 62.2 79 114.5 79 52.4 0 96.8-32.9 114.5-79 43.2 11 83.9 28 121.3 50.2-20.1 45.2-11.9 99.8 25.1 136.8 37 37 91.7 45.2 136.8 25.2C932 185.6 949 226.3 960 269.5c-46.1 17.7-79 62.1-79 114.5zM512 261c-67.9 0-123 55.1-123 123s55.1 123 123 123 123-55.1 123-123-55.1-123-123-123z"  horiz-adv-x="1024" />

    
    <glyph glyph-name="guanbi" unicode="&#58983;" d="M512-128C229.376-128 0 101.376 0 384 0 666.624 229.376 896 512 896c282.624 0 512-229.376 512-512 0-282.624-229.376-512-512-512z m0 975.36C257.024 847.36 48.64 638.976 48.64 384c0-254.976 207.872-463.36 463.36-463.36 255.488 0 463.36 207.872 463.36 463.36C975.36 639.488 766.976 847.36 512 847.36zM548.864 384l195.072 195.072c9.728 9.728 9.728 25.6 0 36.864l-1.536 1.536c-9.728 9.728-25.6 9.728-35.328 0L512 420.864 316.928 615.936c-9.728 9.728-25.6 9.728-35.328 0l-1.536-1.536c-9.728-9.728-9.728-25.6 0-36.864L475.136 384 280.064 188.928c-9.728-9.728-9.728-25.6 0-36.864l1.536-1.536c9.728-9.728 25.6-9.728 35.328 0L512 347.136l195.072-195.072c9.728-9.728 25.6-9.728 35.328 0l1.536 1.536c9.728 9.728 9.728 25.6 0 36.864L548.864 384z"  horiz-adv-x="1024" />

    


  </font>
</defs>
</svg>
